<?xml version="1.0" encoding="UTF-8"?>
<svg id="Layer_2" data-name="Layer 2" xmlns="http://www.w3.org/2000/svg" viewBox="0 0 46.08 46.08">
  <defs>
    <style>
      .cls-1 {
        fill: #333;
        stroke-width: 0px;
      }
    </style>
  </defs>
  <g id="Layer_1-2" data-name="Layer 1">
    <path class="cls-1" d="M23.04,0C10.32,0,0,10.32,0,23.04s10.32,23.04,23.04,23.04,23.04-10.32,23.04-23.04S35.76,0,23.04,0ZM12.06,14.92s.09,0,.14,0c7.23,0,14.45,0,21.68,0,.32,0,.63.05.95.17-.05.04-.1.08-.14.11-2.33,1.73-4.67,3.46-7.01,5.19-1.3.96-2.6,1.92-3.89,2.89-.36.27-.76.31-1.18.18-.12-.04-.22-.11-.32-.18-1.64-1.21-3.27-2.42-4.91-3.63-1.99-1.47-3.98-2.95-5.97-4.42-.05-.04-.1-.07-.17-.13.28-.11.54-.16.81-.17ZM9.54,28.88c-.02-.15-.03-.31-.03-.46,0-3.61,0-7.22,0-10.83,0-.56.17-1.07.48-1.53.02-.03.05-.07.08-.1,0,0,.02-.01.04-.02,3.06,2.27,6.13,4.54,9.2,6.81-.08.1-9.15,6.84-9.47,7.03-.17-.29-.27-.58-.31-.9ZM34.45,31.1c-.2.04-.41.06-.62.06-7.2,0-14.39,0-21.59,0-.43,0-.84-.08-1.23-.28-.06-.03-.12-.07-.21-.11,3.23-2.39,6.45-4.77,9.67-7.16.05.03.09.06.13.09.31.23.62.46.92.68.41.3.87.45,1.37.48.65.03,1.23-.14,1.74-.54.31-.24.63-.47.96-.71,3.22,2.38,6.43,4.76,9.67,7.16-.27.17-.54.28-.82.33ZM36.57,28.47c0,.4-.09.79-.26,1.16-.02.05-.05.1-.09.17-3.16-2.34-6.31-4.68-9.48-7.02,3.09-2.29,6.16-4.56,9.24-6.84.2.24.34.5.44.78.1.29.15.59.15.9,0,3.62,0,7.24,0,10.86Z"/>
  </g>
</svg>