<?xml version="1.0" encoding="UTF-8"?>
<svg id="Layer_2" data-name="Layer 2" xmlns="http://www.w3.org/2000/svg" viewBox="0 0 46.09 46.11">
  <defs>
    <style>
      .cls-1 {
        fill: #333;
        stroke-width: 0px;
      }
    </style>
  </defs>
  <g id="Layer_1-2" data-name="Layer 1">
    <g>
      <path class="cls-1" d="M39.55,6.97C35.18,2.48,29.78.13,23.51,0c-6.4-.12-11.97,2.08-16.55,6.55C2.48,10.92.12,16.31,0,22.57c-.24,13.25,10.37,23.5,23.44,23.54,5.75-.08,11.13-2.18,15.58-6.46,4.53-4.37,6.92-9.78,7.06-16.07.14-6.42-2.06-12.01-6.54-16.61ZM37.85,34.09c-.7.9-1.59,1.52-2.75,1.7-.21.03-.42.05-.63.05-3.8,0-7.6,0-11.4,0s-7.65,0-11.48,0c-1.54,0-2.69-.72-3.51-2.01-.49-.78-.7-1.63-.69-2.55.02-2.07-.02-4.15.01-6.22.03-1.67.79-2.93,2.23-3.78.65-.38,1.36-.54,2.11-.54q.62,0,.62-.63c0-2.21,0-4.43,0-6.64,0-1.29.03-2.57.05-3.86.01-.76.68-1.54,1.5-1.72.28-.06.58-.06.88-.06,4.51,0,9.01,0,13.52,0,1,0,2.01-.05,3.01-.04.45,0,.91.05,1.32.3.61.38,1.01.9,1.02,1.64,0,3.55,0,7.09,0,10.64,0,.38,0,.39.37.37,1.04-.04,2.01.21,2.85.82.91.66,1.45,1.57,1.69,2.65.07.31.11.62.11.94,0,2.08,0,4.16,0,6.24,0,.99-.24,1.92-.85,2.71Z"/>
      <path class="cls-1" d="M31.54,9.27c-5.66,0-11.32,0-16.98,0-.46,0-.68.21-.68.68,0,3.47,0,6.95,0,10.42,0,.36,0,.36.36.36,2.94,0,5.87,0,8.81,0s5.89,0,8.83,0c.27,0,.34-.08.34-.34,0-3.48,0-6.96,0-10.45,0-.46-.21-.67-.68-.67ZM15.62,11.12c.16-.04.33-.07.49-.07,4.62,0,9.24,0,13.86,0,.31,0,.65,0,.84.32.35.57.03,1.12-.66,1.18-.09,0-.18,0-.26,0h-6.85c-2.32,0-4.64,0-6.95,0-.56,0-.8-.17-.92-.63-.08-.33.13-.71.46-.8ZM30.27,18.58c-.06,0-.12,0-.19,0-4.67,0-9.35,0-14.02,0-.22,0-.46-.06-.65-.16-.27-.15-.33-.49-.23-.82.09-.27.37-.46.7-.46,2.39,0,4.78,0,7.17,0,2.37,0,4.74,0,7.12,0,.33,0,.57.11.71.4.24.48-.07,1-.61,1.05ZM30.16,15.57s-.07,0-.11,0c-4.67,0-9.34,0-14.02,0-.5,0-.77-.18-.87-.59-.12-.46.2-.86.68-.86,2.07,0,4.14,0,6.21,0h8.09c.5,0,.83.27.81.69-.02.4-.22.72-.8.76Z"/>
      <path class="cls-1" d="M23.46,27.53c-.27-.8-.55-1.61-.81-2.42-.06-.18-.14-.24-.32-.23-.26.01-.53.01-.79,0-.19-.01-.28.06-.34.24-.31.95-.64,1.89-.96,2.84-.38,1.12-.76,2.24-1.13,3.36-.07.19-.13.39-.2.62.42,0,.78,0,1.14,0,.17,0,.26-.05.3-.22.12-.42.26-.84.38-1.26.05-.17.13-.23.3-.22.6,0,1.2.01,1.8,0,.21,0,.28.08.33.27.11.41.24.82.38,1.23.03.08.11.18.18.18.4.02.81,0,1.24,0-.05-.16-.08-.29-.13-.41-.46-1.34-.91-2.67-1.37-4.01ZM22.52,29.06c-.44,0-.88,0-1.35,0,.25-.82.49-1.61.73-2.4.02,0,.04,0,.06,0,.1.33.2.66.31.98.12.4.24.8.37,1.2.04.12.06.22-.11.22Z"/>
      <path class="cls-1" d="M29.15,28.3c-.05-.08-.07-.23-.03-.3.42-.74.85-1.47,1.28-2.21.16-.28.32-.57.5-.91-.42,0-.78.01-1.14,0-.19,0-.29.08-.37.23-.17.31-.34.61-.52.92-.17.29-.34.57-.53.88-.31-.54-.63-1.04-.89-1.56-.18-.36-.41-.52-.82-.46-.25.04-.51,0-.8,0,.04.11.06.16.08.21.55.96,1.1,1.92,1.64,2.88.04.08.06.21.02.28-.53.93-1.07,1.85-1.6,2.78-.17.29-.32.59-.51.92.46,0,.85,0,1.25,0,.08,0,.19-.09.23-.17.29-.49.57-.99.85-1.48.17-.3.35-.6.53-.91.05.06.07.08.09.11.44.77.89,1.53,1.33,2.3.04.07.12.15.18.16.41.01.82,0,1.25,0,0-.07,0-.09-.01-.11-.68-1.18-1.36-2.35-2.03-3.54Z"/>
      <path class="cls-1" d="M18.67,27.97c.02-.22-.07-.29-.29-.29-.65.01-1.3,0-1.96,0-.25,0-.32-.08-.31-.32.02-.32,0-.63,0-.95q0-.35.34-.35c.85,0,1.71,0,2.56,0,.21,0,.28-.07.27-.27-.01-.2-.02-.41,0-.61.02-.24-.06-.32-.31-.32-1.29.01-2.57.01-3.86,0-.24,0-.32.07-.31.31.01,1.07,0,2.15,0,3.23s0,2.17,0,3.25c0,.22.07.3.29.28.23-.01.46-.02.69,0,.25.02.34-.06.33-.32-.02-.83,0-1.66,0-2.48,0-.21.06-.27.27-.27.64.01,1.29,0,1.93,0,.26,0,.38-.05.35-.33-.02-.19-.02-.39,0-.58Z"/>
    </g>
  </g>
</svg>