<?xml version="1.0" encoding="UTF-8"?>
<svg id="Layer_2" data-name="Layer 2" xmlns="http://www.w3.org/2000/svg" viewBox="0 0 46.08 46.1">
  <defs>
    <style>
      .cls-1 {
        fill: #333;
        stroke-width: 0px;
      }
    </style>
  </defs>
  <g id="Layer_1-2" data-name="Layer 1">
    <g>
      <path class="cls-1" d="M46.08,23.03c-.02,12.81-10.35,23.09-23.18,23.07C10.18,46.07-.1,35.67,0,22.77.1,10.16,10.4-.03,23.16,0c12.6.03,22.93,10.4,22.92,23.03ZM14.06,23.05c0,4.39.05,8.77-.02,13.16-.03,1.89,1.46,2.87,2.81,2.88,4.12.03,8.23.03,12.35,0,1.75-.01,2.81-1.18,2.81-2.91,0-8.76-.03-17.51.02-26.27.01-1.93-1.48-2.9-2.84-2.91-4.12-.02-8.23-.03-12.35,0-1.72.02-2.78,1.18-2.78,2.89,0,4.39,0,8.77,0,13.16Z"/>
      <path class="cls-1" d="M16.1,22.34c0-3.68,0-7.35,0-11.03,0-1,.35-1.35,1.38-1.35,2.9,0,5.79,0,8.69,0,.83,0,1.66,0,2.49,0,.94,0,1.29.36,1.29,1.28,0,7.44,0,14.87,0,22.31,0,.93-.34,1.29-1.28,1.29-3.76,0-7.52,0-11.28,0-.94,0-1.29-.36-1.29-1.27,0-3.74,0-7.49,0-11.23Z"/>
      <rect class="cls-1" x="20.63" y="8.29" width="4.81" height=".62" rx=".31" ry=".31"/>
      <rect class="cls-1" x="20.58" y="36.22" width="4.89" height="1.46" rx=".39" ry=".39"/>
    </g>
  </g>
</svg>