<?xml version="1.0" encoding="UTF-8"?>
<svg id="Layer_2" data-name="Layer 2" xmlns="http://www.w3.org/2000/svg" viewBox="0 0 46.08 46.08">
  <defs>
    <style>
      .cls-1 {
        fill: #333;
        stroke-width: 0px;
      }
    </style>
  </defs>
  <g id="Layer_1-2" data-name="Layer 1">
    <path class="cls-1" d="M23.04,0C10.32,0,0,10.32,0,23.04s10.32,23.04,23.04,23.04,23.04-10.32,23.04-23.04S35.76,0,23.04,0ZM35.83,31.29c-.44.45-.88.88-1.33,1.32-.81.81-1.62,1.62-2.44,2.42-.4.39-.88.61-1.44.68-.17.02-.34.03-.48.04-1.38-.06-2.67-.31-3.93-.79-2.4-.92-4.58-2.23-6.55-3.86-2.15-1.78-4.12-3.75-5.8-5.98-1.17-1.54-2.18-3.18-2.93-4.97-.46-1.1-.8-2.23-.99-3.41-.09-.58-.12-1.16-.06-1.75.06-.53.26-1.02.65-1.41,1.26-1.27,2.52-2.53,3.79-3.79.44-.43,1.01-.53,1.48-.25.26.16.46.38.61.65.98,1.86,1.95,3.72,2.94,5.56.35.65.13,1.46-.33,1.92-.43.43-.86.86-1.29,1.29-.17.17-.23.37-.17.6.21.77.6,1.45,1.02,2.11.57.89,1.25,1.69,2,2.44.73.73,1.45,1.48,2.26,2.12.79.62,1.61,1.2,2.54,1.59.23.1.48.15.73.22.19.05.36-.02.49-.15.49-.5.98-1,1.47-1.49.59-.59,1.46-.71,2.18-.29,1.75,1.03,3.5,2.06,5.24,3.1.31.18.56.42.67.77.15.49.03.92-.33,1.28Z"/>
  </g>
</svg>