<?xml version="1.0" encoding="UTF-8"?>
<svg id="Layer_1" data-name="Layer 1" xmlns="http://www.w3.org/2000/svg" viewBox="0 0 82 85">
  <defs>
    <style>
      .cls-1 {
        fill: #51733f;
        stroke-width: 0px;
      }
    </style>
  </defs>
  <path class="cls-1" d="M60.13,0H21.87C9.79,0,0,9.13,0,20.4v44.2c0,11.27,9.79,20.4,21.87,20.4h38.27c12.08,0,21.87-9.13,21.87-20.4V20.4c0-11.27-9.79-20.4-21.87-20.4ZM40.87,16.34s.14,0,.17,0c.05,0,.11,0,.16.01.72.05,1.37.43,1.95,1.14.56.69.84,1.45.84,2.25s-.3,1.58-.9,2.33c-.64.82-1.39,1.24-2.2,1.24-.55,0-1.36-.19-2.11-1.09-.55-.66-.83-1.51-.83-2.52,0-1.96,1.07-3.19,2.93-3.37ZM43.72,38.8s0,.07,0,.11l.04,2.46c0,.79-.33,1.46-.97,1.96-.57.45-1.2.68-1.87.68-1.19,0-1.96-.72-2.01-1.88-.34-7.93-.5-12.2-.5-13.06s.04-1.85.12-3.13c.09-.8.63-1.6,1.89-1.6,2.53,0,3.17,1.51,3.32,2.42.09.64.13,1.1.13,1.46l-.16,2.39v8.19ZM20.41,43.8s-6.67-.13-6.67-.13c-.43,0-.81-.3-.93-.71-.15-.51-.62-2.05-.72-17.18v-3.18c0-2.71.29-4.73.9-6.18.65-1.57,1.98-2.82,3.96-3.72,1.05-.46,2.4-.67,4.15-.67s2.97.09,3.89.29c2.57.47,4.31,1.36,5.32,2.71.97,1.3,1.46,3.04,1.46,5.15s-.52,4.01-1.56,5.39c.41.2.81.45,1.21.75.87.65,1.61,1.36,2.2,2.1.04.05.08.11.11.16.96,1.34,1.44,3.14,1.44,5.34,0,3.58-1.3,6.17-3.86,7.72-2.42,1.46-5.99,2.17-10.89,2.17ZM51.91,75.85c-.62.88-1.41,1.07-1.96,1.07-.9,0-1.69-.76-2.66-2.53-.73-1.34-1.78-3.24-3.14-5.69-1.12-2.01-2.3-3.83-3.51-5.44-.94.99-1.72,1.76-2.32,2.3.07,1.8.11,3.23.11,4.37,0,1.25-.03,2.32-.08,3.16-.28,3.38-2.09,3.88-3.15,3.88-.77,0-1.24-.32-1.5-.6-.44-.46-.64-1.15-.6-2.03v-3.31c-.01-.05-.02-.11-.02-.17,0-2.27-.13-6.11-.38-11.73-.25-5.44-.47-8.95-.66-10.43,0-.04,0-.08,0-.13,0-.9.28-1.7.84-2.37.75-.92,1.59-1.11,2.15-1.11.53,0,1.81.21,2.27,2.12.39,2.71.65,6.32.78,10.82,1.61-1.73,2.93-3.27,3.92-4.59,1.32-1.76,2.72-4.01,4.15-6.7.78-1.44,1.94-1.75,2.78-1.75.69,0,1.28.22,1.75.65.49.45.75,1.03.75,1.67,0,1.19-.78,2.94-2.45,5.54-1.37,2.12-2.84,4.24-4.4,6.3,2.09,2.44,3.92,5.25,5.45,8.38.21.4.48.92.83,1.54.35.64.63,1.15.83,1.52.59,1.12.88,2.13.88,2.99,0,.91-.22,1.68-.66,2.28ZM67.06,73.71c-.82.77-1.82,1.43-2.95,1.93-1.18.53-2.31.8-3.34.8-2.78,0-4.82-1.96-6.06-5.84-.72-2.19-1.08-4.64-1.08-7.28s.57-5.07,1.69-7.06c1.22-2.17,3.16-3.26,5.77-3.26,1.63,0,3.18.54,4.63,1.62,1.54,1.13,2.32,2.58,2.32,4.31,0,1.61-.6,3.18-1.78,4.67-1.19,1.5-2.8,2.42-4.77,2.73-.59.09-1.38.16-2.37.18.35,2.14.87,3.05,1.27,3.44.03.03.06.06.08.09.07.09.14.13.31.13,1.37,0,2.49-.49,3.42-1.49,1.38-1.5,2.32-2.13,3.13-2.13.65,0,1.19.48,1.68,1,.03.03.06.06.08.1.56.64.83,1.25.83,1.88,0,1.13-.88,2.42-2.85,4.19ZM65.56,22.63c-3.89,0-7.05-3.3-7.05-7.36s3.16-7.36,7.05-7.36,7.05,3.3,7.05,7.36-3.16,7.36-7.05,7.36Z"/>
  <path class="cls-1" d="M63.36,59.26c.06-.22.11-.51.1-.88-.01-.57-.47-1.1-1-1.18-.57-.09-1.01,0-1.27.06-1.77.47-3.12,2.58-3.26,5.27,2.78-.07,4.96-1.42,5.43-3.28Z"/>
  <path class="cls-1" d="M18.23,21.03l.08,3.98c.19-.02.41-.05.66-.08,1.11-.14,2-.28,2.71-.42,3.94-.81,4.4-2.76,4.4-4.16s-.53-1.85-.93-2.12c-.74-.51-1.76-.77-3.02-.77-2.1,0-2.85.38-3.11.6-.26.23-.48.42-.65.58,0,0,0,0,0,0,0,0-.03.07-.06.24-.07.34-.1.58-.12.71,0,.01-.02.16,0,.68.03.44.03.69.03.76Z"/>
  <path class="cls-1" d="M28.73,32.15c-.13-.38-.3-.67-.53-.86-.27-.23-.71-.46-1.32-.69-.61-.23-1.54-.34-2.77-.34s-3.19.16-5.94.47c0,3.41.07,5.93.18,7.54,3.41-.03,5.86-.25,7.26-.65,1.76-.5,2.48-1.03,2.78-1.38.03-.04.06-.07.1-.1.36-.46.53-.91.53-1.4,0-.73,0-1.25-.03-1.55,0-.16-.06-.46-.26-1.04Z"/>
</svg>