<?xml version="1.0" encoding="UTF-8" standalone="no"?>
<svg id="Africa" data-name="Africa" xmlns="http://www.w3.org/2000/svg" viewBox="0 0 940 1000">
  <defs>
    <style>
      #outlines{
        fill: none;
        stroke: #999999;
        stroke-miterlimit: 10;
        stroke-linecap: round;
        stroke-width: 1px;
      }
      .country {
        fill: #fff;
        stroke-width: 0px;
      } 
      .destinations .country {
        fill: #333333;
      }
      .route {
        fill: none;
        stroke: #4d4d4d;
        stroke-miterlimit: 10;
        stroke-width: 2px;
      }
      .countryCircle {
        fill: #333333;
      }
      .city {
        fill: #4d4d4d;
        opacity: 1;
      }
      #NBO .cityCircle {
        fill: #ffffff;
      }
      .countryName{
        fill: #fff;
        font-family: SegoeUIVariable, 'Segoe UI Variable';
        font-size: 6px;
        font-variation-settings: 'wght' 400, 'opsz' 10;
        letter-spacing: .03em;
      }
      #lakeVictoria{
        fill: #808080;
        stroke-width: 0px;
      }
    </style>
    <filter id="dropshadow" height="130%">
      <feGaussianBlur in="SourceAlpha" stdDeviation="3"/>
      <feOffset dx="0" dy="0" result="offsetblur"/>
      <feMerge>
        <feMergeNode/>
        <feMergeNode in="SourceGraphic"/>
      </feMerge>
    </filter>
  </defs>
    <g id="otherAfrica">
      <path id="AO" class="country" data-name="Angola" data-id="AO" d="M395.3,758.04c2.98-.82,6.2-4.7,8.85-1.57,2.65-3.3,10-9.72,21.83,2.39l59.61-.82,6.37,5.52,37.62,4.86,23.81-5.36-16.04-14.34,1.24-50.68,28.69.82-3.14-3.3,3.39-26.78h-1.24c-6.95,2.47-14.3,1.9-21.66,2.06l-2.56,5.03-4.71-3.96,5.21-6.92-7.11-14.26-1.07-32.06-12.24.91v-5.77l-5.46-.82-1.41,2.55-10-.49-3.8,14.5c-4.96-.91-9.59-2.14-17.03,1.65-6.61-2.14-12.57,2.8-21.83-30.08l-3.56-2.06-37.7-.58-17.12,5.85c4.3,12.28,13.39,19.28,13.06,37.5l-2.98,2.8c2.4,8.24,4.63,16.81,10,20.77.5,2.31-.66,3.96-.83,5.69-.58,6.35-3.89,24.23-5.37,21.1,0,0-6.04,1.32-6.61,6.18-.25,2.39-3.22,2.72-4.3,5.6-3.06,8.16-6.2,21.02-8.52,32.8-.25,1.4-2.07.74-2.23,2.06-.66,3.71.08,6.43-.17,10.38-.08,1.15-1.57-.82-1.9.66-.17,1.73,1.32,6.84.91,8.16h0ZM399.6,588.35l6.61-4.04c2.81-6.51,5.04-4.62,7.28-1.73-2.81,2.55-5.79,5.03-6.04,9.56.66,6.26-2.23,5.77-4.3,6.84-.91-1.73-2.23-3.3-1.74-5.27-.08-1.81-.08-3.71-1.82-5.36h0Z"/>
      <path id="BJ" class="country" data-name="Benin" data-id="BJ" d="M271.44,429.62l-12.65,1.65-6.53-51.1c-.83-3.87-4.71-5.6-7.69-7.99l1.57-8.32,8.19-6.43,8.52.33,6.28-10.05,14.14,2.23v11.21c4.13,4.29,3.39,10.05.33,11.87.25,5.36-.74,9.81-4.3,9.72-2.15,5.85-4.05,12.77-7.11,15.25l-.74,31.65h0Z"/>
      <path id="BF" class="country" data-name="Burkina Faso" data-id="BF" d="M197.28,384.62c-2.65-.33-3.56-3.87-5.71-5.93-4.22-4.04-12.24-.99-18.69,2.88-7.77-3.87-8.85-7.33-10.25-10.55,1.57-4.2.5-9.72,2.65-14.18,1.9-3.96,5.13-7.66,10.91-10.8l7.03-14.67c6.04-1.98,11.49-2.72,16.21-4.37,4.55-1.57,8.6-4.2,11.16-7.5,9.01-5.52,20.17-12.61,27.04-10.88-.08,2.23-.08,4.53,1.32,6.43,2.32,1.57,1.82,4.2,1.32,6.84l13.89,18.63,5.29,1.73c.74-.91,4.55-5.52,6.45,4.7l3.14.66-6.12,10.22-8.6-.49-8.27,6.43-12.48-1.48c-7.19-.08-7.85,1.24-10.91,2.14l-27.7-.82,2.32,21.02h0Z"/>
      <path id="BW" class="country" data-name="Botswana" data-id="BW" d="M577.86,764.22l-8.76,4.94c-8.68,0-9.18,5.11-12.48,7.91l-2.48-6.84-32.82,2.88-1.9,50.68-13.48-.33-.91,36.59c3.64,4.53,8.6,9.4,11.16,12.69,2.4,3.21.91,9.4-1.49,15.25,6.53,2.72,12.82,2.88,19.1,1.24.91-2.47,2.23-4.2,3.89-5.19,2.73-1.57,4.96-3.54,5.79-6.76l8.19-6.84c5.04.41,8.93,2.47,12.9,5.27,8.35,0,13.31-1.4,16.78-3.13l1.65-7.66,48.04-38.24c-6.04-4.37-9.09-3.38-12.48-4.2-3.47-.82-7.77-7.01-6.61-17.55-3.31-.66-5.46-2.47-7.28-4.62-2.07-3.46-4.8-3.13-7.28-4.62-3.8-5.19-10.67-11.95-11.24-15.91-.25-1.98-1.32-1.81-2.73-4.04-1.74-2.64-3.97-8.41-5.54-11.54h0Z"/>
      <path id="CF" class="country" data-name="Central African Rep." data-id="CF" d="M446.73,415.61l-12.73,20.77,1.74,15.08c5.46,10.63,11.74,20.44,20.26,28.43,5.21-5.85,7.52-10.3,17.94-12.94l9.01,3.96,10.17-2.8c2.48-2.88,2.32-7.5,2.48-11.87,3.47-5.69,7.19-8.65,11-11.29,2.81,2.14,7.77.49,8.1,6.92,3.31,3.71,6.45,5.93,8.85,2.47,2.81,4.12,14.72,2.8,22.9,3.71.5-1.57,1.32-3.54,3.06-6.59,2.73-.41,5.21-1.48,9.43,1.57l17.28-6.02,1.16,2.55,6.95-1.07v-2.55l15.21-1.24,3.39,4.37,1.57-2.39,2.65,1.9,2.23-2.55,7.11-.25c-1.49-4.04-.83-8.82-11.66-11.37l-5.54-11.29c-5.54-5.36-15.46-7.75-16.21-16.32l-4.3-4.12c-3.64.16-6.78,1.73-10.83-4.78-6.53-.99-10.91-1.98-6.7-15.16-3.31-8.08-8.43-11.87-12.9-18.05-9.34,1.81-13.06,1.32-13.39,10.96-2.98,2.39-7.36,3.54-8.68,7.25-1.16,2.72-2.15,4.86-6.28,5.19-1.16.74-2.65,2.23-4.13,3.87l-17.69,1.81c.91,3.3.58,6.35-3.22,10.05-.99.99-1.74,2.23-2.73,3.3l-12.73,1.15c-14.72,6.26-22.16,4.86-32.74,7.33h0Z"/>
      <path id="CG" class="country" data-name="Congo" data-id="CG" d="M399.6,588.35l-13.89-17.88,9.26-5.85-1.07-10.05,11.41-6.84c1.9-1.48,3.39-5.19,6.86.25,6.04-.74,9.59.82,11.49,3.79l4.8-3.3,1.98-19.94c0-6.84-7.77-11.37,1.41-21.18,1.57-6.43-4.22-10.88-10.58-10.55-1.57,1.98-2.15,5.19-6.04,4.37l.17-9.56,2.32-3.46,18.6.25,9.01,3.21c3.39-1.73,7.85,3.38,11,3.87l-.5-15.33c7.03-8.98,12.24-11.62,18.02-12.94l8.85,4.04,10.91-3.05c-2.65,7.17-5.62,13.02-8.35,20.11-4.63,12.03-3.14,26.7-5.21,40.22-10.09,4.45-13.73,12.2-19.02,19.12l-4.38,20.03c-9.51,10.14-17.94,18.3-23.32,17.88,0-5.69-6.28-10.8-11.33-1.4-3.56,2.31-6.12,1.15-8.76-1.48-3.97-5.19-5.21-.82-7.03,1.81l-6.61,3.87h0Z"/>
      <path id="CI" class="country" data-name="Côte d'Ivoire" data-id="CI" d="M127.08,456.08l5.29.49,42-11.87,15.05,1.65,2.15-8.9c-.5-7.09-6.53-14.42,1.65-21.26.74-5.19.33-10.88,5.95-14.18l-1.9-17.55c-2.32.08-3.31-2.31-4.46-4.45-2.73-4.62-11.74-4.04-20.09,1.57-3.97-2.8-8.6-4.7-10.17-10.71-5.54-2.06-9.92-.91-13.48,2.14l.66-6.02c-.91-2.31-4.05-1.65-7.69-.25-.91.08-.25,1.57.74,3.38-1.32.49-2.73.58-4.05.82-.91,1.15-2.32,2.39-3.8,2.72-3.8-6.59-5.95-5.36-10.5-1.73-1.57,1.24-2.56,4.29-3.14,6.84-.74,2.97.58,5.85,3.8,5.44l-.33,3.96c2.32.99,1.82,1.4-.33,3.71-.99.99,2.73,5.69,2.32,6.76l-7.11-1.4c-.17,1.15-.41,2.72-.58,3.96l3.31,1.4-2.65,6.92c.33.58-3.14.16-4.05.33v4.37c3.72.99,1.74,9.48-1.65,10.8l4.96,3.13c1.07-.82,4.22,0,6.2,5.36,0,0,4.96,3.13,4.88,7.01-.08,3.13-2.23,3.63-2.73,6.02l-.25,9.56h0Z"/>
      <path id="CM" class="country" data-name="Cameroon" data-id="CM" d="M456.32,495.39c-3.72-1.65-8.1-5.27-10.75-3.87l-9.34-3.3-18.69-.16h-29.35l-20.01.25,2.07-15.25-5.29-6.76,1.98-2.39-1.32-1.98-3.47,1.07c-4.3-.49-5.87-3.63-6.86-7.09-2.32-.91-5.62-.58-5.62-4.45,4.88-8.49,5.95-20.03,15.54-24.72l.33-3.71,13.73-.66c5.13,3.3,3.47,7.01,12.15,5.93,6.04-10.8,10.34-30.66,18.19-31.56,4.71-11.62,6.12-28.1,14.22-34.86,3.97-1.4,7.36-3.13,8.85-5.69.83-1.48,1.07-6.35.33-8.49-.5-1.57-1.49-.33-3.06-2.39l-2.32-8.9,1.9-1.57,7.19,6.1c.99,5.03,3.56,9.64,3.06,15-.5,7.83-3.72,8.9,4.05,17.88,1.32,2.23,1.65,4.53,1.32,7.01l-14.55-1.48c-1.65,3.96-5.21,12.94,9.09,16.15l6.78,20.27-12.48,20.77,1.74,15.25c5.29,9.81,11.49,20.03,20.09,27.94l.5,15.66h0Z"/>
      <path id="DZ" class="country" data-name="Algeria" data-id="DZ" d="M140.48,107.05l13.23-6.59,2.73.99,4.55-3.96,7.61.66.41-3.54c15.79.74,19.02-3.46,21.83-7.66l13.23-5.44,4.88.16-2.56-3.38.66-2.64v-4.37c5.04-.66,11.49.16,11.49-5.19l21.33.33,2.98-6.1c-4.13-1.48-4.8-7.42-4.3-13.68.41-4.7,0-15.25,0-15.25-1.41-1.73-3.14-3.3-3.56-5.77,1.16-.49,6.53.33,9.76-3.96,1.65-2.23,3.8-6.76,6.61-5.85,3.31,1.07,9.51,1.65,9.92-.41.41-2.23,6.45-7.09,15.21-7.09,16.04.08,36.79-6.02,43.57-4.04,6.78,1.98,15.63-2.64,19.51-2.39,3.97.25,5.13,4.53,10.5.91,1.98-1.4,9.26,4.29,16.21,2.31,0,0-4.13,1.81-4.38,6.02-.33,6.51-.99,26.78-.99,26.78-.66-1.07-5.62-.25-6.37,3.05-1.07,4.53-6.12,3.3-6.53,5.6-.83,4.53,3.22,8.74,7.94,12.86,1.24,1.07-.41,6.84.74,7.91,3.64,3.21,10.09,5.44,10.09,5.44,1.49,14.92,4.13,25.22,4.13,25.22-6.86.49-3.22,6.76,1.41,13.52l.25,38.73s-6.2,1.24-5.79,2.8c.99,3.54,1.16,6.18,5.71,10.22,2.89,2.55,2.98,6.92,2.73,9.81-.25,3.3,3.06,4.78,3.89,4.78,6.78-.16,12.48-3.46,18.93,14.18l-81.28,53.24c-12.07,5.19-31.92,8.24-32.66,7.99-4.55-1.98.74-6.92-.83-10.3-1.49-3.3-3.39-5.85-8.52-5.27-2.73.33-4.22-3.21-5.29-3.05-4.38.74-5.54-4.29-6.53-5.11-3.89-3.54-7.69-4.53-6.78-7.75l-118.48-90.24,2.81-24.48h0Z"/>
      <path id="EH" class="country" data-name="W. Sahara" data-id="EH" d="M70.69,210.32c1.74-12.11-5.87-29.17,17.78-29.59l4.96-36.59,42.08,3.71,3.22-24.72-56.31-4.12c-5.21,7.99-8.27,14.75-16.12,17.88-7.44,2.97-10.34,12.11-12.48,20.03l-22.16,25.3c-.83,5.77-4.13,9.56-8.6,12.53-4.05,5.27-6.53,11.87-7.11,17.64l5.62-5.11c-.08-.08,49.11,3.05,49.11,3.05Z"/>
      <path id="EG" class="country" data-name="Egypt" data-id="EG" d="M574.97,211.72l109.14-3.21,3.56,3.46,7.19-.91.74-6.1,8.02-2.23,1.65-7.5,3.47,1.15,4.38-4.62-2.4-11.79,3.8.16-9.26-8.24-25.47-41.95v-5.11c-6.12-3.96-10.58-8.9-13.23-15.08l-.25-3.87-3.89-2.8.99-6.18,11.41,15.25c.99,1.15-.17,1.98.83,3.3,2.98,4.12,8.1,8.24,11.16,10.71,1.57-.49,3.39-.16,4.13-3.3l2.98-19.78-13.39-27.2c-9.01,6.35-18.11,8.82-27.12-.58l-11.08.82c-2.56,1.07-5.21,2.72-6.7,0l-17.86,10.38-29.52-6.59c-4.46-.91-9.18-2.39-12.82-1.73-3.72,2.31-6.45.49-9.09-1.24-1.49,2.64-3.14,5.27-1.65,6.84l1.16,10.71c-2.65,4.2-5.04,8.49,3.22,18.38l5.87,98.73h0v.08Z"/>
      <path id="GA" class="country" data-name="Gabon" data-id="GA" d="M385.79,570.47l-24.89-25.71-5.95-15.08,5.46-5.27,1.57-8.49,7.03,1.57c.41-.41.99-.74.66-1.57l-6.04-3.13,1.9-8.65,23.32-1.15v-14.92h28.94l-2.23,3.13-.25,9.72c2.65.99,4.38-1.15,6.04-4.2,4.46-.66,12.57,3.3,10.34,10.96-3.72,4.12-5.37,7.99-4.05,11.54.99,2.64,2.15,5.11,2.89,8.98l-2.23,20.27-4.63,3.38c-2.07-3.46-5.95-4.7-11.33-4.04-1.65-2.06-3.31-4.7-6.45-.58l-12.07,7.42,1.07,9.89-9.09,5.93h0Z"/>
      <path id="GH" class="country" data-name="Ghana" data-id="GH" d="M248.71,434.07c-1.32,1.73-1.49,5.44-5.13,3.3-18.19,2.23-25.38,9.89-38.03,14.83l-16.04-5.85,2.15-8.9c-.5-7.09-6.53-14.42,1.65-21.26.74-5.19.33-10.88,5.95-14.18l-4.3-38.32,27.7.82c3.72-1.98,7.61-2.23,11.58-2.23-2.15,4.37-.99,8.49,4.22,12.36,4.22,17.31,3.72,33.95,5.04,50.85l5.21,8.57h0Z"/>
      <path id="GN" class="country" data-name="Guinea" data-id="GN" d="M26.95,359.82c-.5,1.48-.33,2.23,1.57,2.23.74.91,3.56-5.69,3.14.99l2.48.25c-.83,3.71,1.65,8.24,4.13,9.07,3.06,1.07,4.8,4.62,6.53,6.18l4.22,7.75c2.89,1.98,6.86.58,13.15-7.83-.66-2.8,3.22-4.29,14.72-3.54,9.51,6.84,12.32,14.75,8.76,23.74,4.22-.99,6.61-3.87,13.64-2.06,3.56,4.45,5.71,9.31,2.81,15.91,3.89,1.48,5.29,5.69,10.75-1.48-.33-1.65.99-2.23,2.65-.99,1.07.74,2.73-.41,4.38,0l2.89-7.42-3.56-1.4.66-3.87,7.19,1.48c-.58-2.64-4.13-6.1-1.49-7.91,1.16-1.24.66-2.14-.58-3.05l.17-3.38c-6.95-.82-2.98-8.57-.58-12.44l-4.3-3.87-.5-8.57-3.56,2.55-1.32-1.98,4.71-4.29-6.37-4.86c1.07-3.38-.33-7.42-1.49-11.62l-4.46-.99c.08,1.9-.58,3.38-2.56,4.04-1.65-.49-2.73.58-3.06,3.21l-7.94-3.3-6.28,4.53c.83-2.06-1.24-3.3-2.56-4.78l-3.47,2.31c-2.73.91-3.06-.58-3.06-2.39.58-.58,1.24-1.07,1.49-1.98-9.84-1.48-20.09-.91-29.02-6.26h-2.81l-1.24,15.16-7.69.16c-7.61,2.88-11.24,9.81-12.15,10.71h0Z"/>
      <path id="GM" class="country" data-name="Gambia" data-id="GM" d="M8.6,320.01h15.21c3.31-4.37,8.1-2.97,13.56.99l8.76.66,1.9,2.47-6.37,2.23c-4.38-.91-8.27-2.55-11.82-4.78-2.56,1.48-5.46,2.39-9.09,2.06l-1.65,2.72-13.15.58,2.65-6.92h0Z"/>
      <path id="GW" class="country" data-name="Guinea-Bissau" data-id="GW" d="M5.21,337.73l.91,2.55c1.9,1.32,5.54-1.32,5.29,4.94,1.74.91,3.89-.91,5.21,3.3,2.15,1.07,7.61-8.98,5.62,6.02l4.8,5.27c2.89-4.45,7.19-8.9,11.66-10.47l7.85-.16,1.32-15.16h-20.34c-4.13,1.9-8.35,3.05-12.9,2.06-2.81.99-5.79,1.48-9.43,1.65h0Z"/>
      <path id="GQ" class="country" data-name="Eq. Guinea" data-id="GQ" d="M388.77,502.97l-22.41,1.07-4.46-2.97,6.7-12.86,20.01-.25.17,15h0ZM326.84,514.67c0,1.32-1.07,2.39-2.4,2.39s-2.4-1.07-2.4-2.39,1.07-2.39,2.4-2.39,2.4,1.07,2.4,2.39ZM336.27,495.39c0,1.07-.83,1.9-1.9,1.9s-1.9-.82-1.9-1.9.83-1.9,1.9-1.9,1.9.82,1.9,1.9h0Z"/>
      <path id="LR" class="country" data-name="Liberia" data-id="LR" d="M127,456.08l-11.82-4.12-41.75-34.04,13.23-11.04-.25-3.96,6.45-6.26c1.9-1.32,4.3-.41,6.45-.16,5.54,8.08,4.05,11.87,2.56,15.99,3.14.82,5.54,6.02,10.75-1.4-.17-2.06,1.16-2.06,3.31-.82v3.96c1.74.74,2.98,4.04,1.32,7.17-.91,1.65-1.49,3.3-3.39,3.63l5.46,3.3c1.57-.25,2.89-1.4,6.12,5.44.66.99,8.85,4.37,2.07,12.44l-.5,9.89h0Z"/>
      <path id="LS" class="country" data-name="Lesotho" data-id="LS" d="M624.74,933.17c-.66,1.4-1.65,2.14-2.65,3.21-.83.82-1.74,1.57-2.65,2.23-.58.16-1.24.33-1.82.66-.99,0-2.73.41-3.97.91-.91.33-1.74.74-2.4,1.4-.58.58-.74,1.4-.91,2.06-.17.74-1.74,1.73-2.32,1.9-.83.25-1.98,0-2.89,0-1.74,0-2.65-.41-3.64-1.73-1.24-1.65-2.89-2.97-3.97-4.86-.83-1.32-1.49-2.14-1.98-3.54-.33-1.07-.25-2.23-.25-3.3s.66-2.72,1.9-3.3c.17,0,.33-.16.41-.25,1.49-.74,1.82-2.39,2.89-3.46,1.16-1.15,2.73-2.23,3.97-3.3.83-.66,1.98-1.32,2.89-1.73,1.41-.66,2.73-1.07,4.22-1.4,1.07-.25,2.4-.66,3.31-.91h1.16c1.32-.25,2.98.41,3.64,1.32.99,1.32,2.15,2.55,3.14,3.79.5.66.5,2.23.91,3.13.58,1.24,1.32,2.14,1.74,3.46s-.17,2.72-.74,3.87h0v-.16Z"/>
      <path id="LY" class="country" data-name="Libya" data-id="LY" d="M396.29,58.43s2.07,7.99-4.13,12.36c-3.14,2.23-13.23,9.64-13.23,9.64.83,4.53,1.9,15.91-7.94,17.39-6.78,1.07-3.22,6.51,1.32,13.93l.25,38.57s-6.04,1.15-5.62,2.8c.99,3.54.99,6.1,5.54,10.14,2.89,2.55,2.98,7.25,2.73,10.05-.25,3.3,3.39,4.7,4.3,4.7,6.78-.16,12.15-3.38,18.6,14.26l31.92.99c3.72.82,7.69,6.43,7.69,6.43l18.27-5.19,107.49,52.99-.17-8.57c11.91.99,13.23-.41,13.23-.41l-7.36-125.19c-4.3-5.93-8.6-11.7-3.39-18.21,0,0,0-6.92-1.24-10.88-1.32-4.12,2.4-6.92,2.4-6.92,0-5.27-10.25-4.94-15.63-5.19-7.03-.33-11.82-1.32-10.58-6.59,0,0-18.44-6.59-25.63-2.23-3.8,2.31-11.82,6.02-13.23,10.71-.99,3.21,0,5.36,1.82,8.57,3.31,5.69-7.94,25.14-20.84,9.56,0,0-16.95-4.62-26.46-6.76-9.34-2.06-15.79-10.22-11.91-15.16.41-.49-25.38-7.91-25.38-7.91-11.99,1.9-20.67-1.57-22.82-3.87h0Z"/>
      <path id="MA" class="country" data-name="Morocco" data-id="MA" d="M138.82,123.37l2.15-16.24,12.82-6.59,2.89.82,4.55-3.71,7.52.58.41-3.63c15.79.74,18.93-3.46,21.75-7.66l13.23-5.36h4.96l-2.48-3.3.83-3.05-.41-3.96c5.13-.66,11.58.16,11.58-5.19l21.41.33,2.89-6.59c-4.13-1.48-4.8-7.42-4.3-13.68.41-4.7,0-15.25,0-15.25-1.41-1.73-3.14-3.3-3.56-5.77-3.47-.66-7.69-.74-9.09-2.8-4.96-.82-9.92-1.32-14.39-.82-8.19.82-11.58-2.14-14.88-9.81-7.85-.49-16.21,16.32-22.32,24.72-14.72,4.04-25.3,10.63-32.58,19.37.99,3.54-.74,4.86-4.3,7.17-2.32,1.48-10.42,14.42-7.69,21.59,0,5.6-4.38,15-17.03,21.26,0,0-5.87,5.52-15.21,8.49-3.97,1.32-13.06,2.31-15.79,4.86l57.05,4.2h0Z"/>
      <path id="MG" class="country" data-name="Madagascar" data-id="MG" d="M858.98,882.48l39.69-84.14c3.06-9.48,4.8-18.96,9.34-28.52,3.06-4.04,6.86-7.75,4.46-13.68l.83-8.16c.41-2.47,1.82-2.39,3.89-.41l1.24,4.94c1.49-.49,2.89-.99,2.81-3.38l-4.05-43.6-7.61-8.16-4.38,3.63-1.16,11.21-2.56,2.23c-1.32-.41-3.31-2.39-2.73,2.14l-3.8,4.12c-4.3-7.91-4.88-.91-3.72,2.55,0,1.48.33,4.04-1.74,1.73l-3.06,4.94,4.38,3.21h-2.56l-5.62,4.04.83-4.94-5.62,5.6,1.32,6.84-3.8.16.74-3.05c-3.47-2.31-6.37,2.55-9.43,4.2l3.47,5.6-4.3.41-1.74-5.19-6.95,1.15c.25,2.47-2.56,3.13-5.13,4.04l-.41-3.46-3.89,3.87-6.78.33-1.32,5.85-9.18,13.19c7.03,6.1,4.13,19.94,6.04,30.08-2.56,8.16-7.61,14.42-12.07,21.1-5.21,3.46-7.61,6.92-8.35,10.3-.74,3.3-2.4,9.81-1.41,13.1,1.16,3.87,3.31,2.55,3.39,6.43l1.24,6.35c-6.37,24.56,9.51,24.15,12.98,30.16,1.57-.74,3.56.49,5.04-.33,3.39-1.81,7.69-6.35,12.24-4.78,3.8.99,6.7-.49,9.43-1.73h0Z"/>
      <path id="ML" class="country" data-name="Mali" data-id="ML" d="M180.08,163.59l-21.08.58.99,121.23,5.54,1.98-3.89,11.87-62.09-3.46-7.11,5.03-3.89-1.4-2.73-7.99-3.56-.91c-7.03,15.25-8.1,13.43-10.67,16.07.41,1.57-.58,3.05,0,4.45,1.57,4.45,2.56,8.98.17,10.96,3.22,2.88,7.44,5.19,8.6,9.31.25,5.27,0,9.31-1.49,10.8-1.41,1.4.25,4.7,3.22,2.23l2.89-1.73c.91,1.48,2.98,2.31,2.73,4.53l6.28-4.29,7.69,3.21c.74-1.15-.17-2.97,2.81-3.38,1.57.08,2.65-1.07,3.14-3.79l4.22.99c1.16,3.96,2.48,7.91,1.82,11.62l6.2,4.7-4.71,4.37,1.32,1.98,3.47-2.31.5,8.32,4.38,4.04c1.82-1.81,4.63-4.04,6.86-2.88,2.07,1.07,2.98,5.19,4.96,3.87,1.98-1.32,2.4-2.64,5.54-2.64s-1.98-4.04.91-3.96c1.32,0,3.47-1.57,5.87-.91,2.23.58-.58,8.98,1.07,7.17,4.13-4.45,12.24-2.72,13.06-1.73,2.32-8.16-2.15-15.66,13.48-25.14l6.95-14.5c9.26-3.87,19.1-2.14,27.62-12.11,10.67-7.09,21.33-12.44,27.12-10.88h10.75l6.04-5.11,28.94.33c.74-1.4,1.16-2.47,5.13-4.45,0-3.46,3.14-3.71,5.37-4.78l1.16-42.77-10.83,1.57c-4.3-2.8-.66-3.71-.66-9.89-2.48-5.52-5.54-6.35-8.6-5.77-2.65.49-3.89-3.3-5.29-3.05-2.4.49-5.04-1.81-6.7-5.27-.58-1.15-2.07-1.73-3.06-2.39-2.23-1.57-4.3-2.72-3.72-5.11-.33-.33-52.09-39.72-76.65-58.6h-.08Z"/>
      <path id="MR" class="country" data-name="Mauritania" data-id="MR" d="M70.61,210.07c1.74-12.11-5.87-29.17,17.78-29.59l4.96-36.59,42.08,3.71,2.32-16.48,42.42,32.47-21.17.49,1.07,121.31,5.37,1.9-3.64,11.79-62.26-3.38-7.11,5.03-3.8-1.24-2.73-8.24-3.8-.91s-6.86,16.89-11.24,15.16c0,0-1.98-2.14-4.13-4.37-1.9-1.98-4.05-3.96-5.54-6.76-2.07-3.96-3.56-10.22-6.37-9.72-6.12.99-10.75-7.09-10.75-7.09,0,0-7.11-1.98-12.24-.58-6.61,1.81-14.06-.08-15.38.82l6.04-16.81.58-19.53-3.72-5.85c1.98-3.46,8.02-6.68,4.05-17.06-.41-1.15-2.56-.58-2.56-.58l-2.56-7.66,3.14-3.13,49.2,2.88h0Z"/>
      <path id="MZ" class="country" data-name="Mozambique" data-id="MZ" d="M646.73,729.61l2.89,7.58-.25,3.79,10.09.74,23.73,9.23c2.4,13.19.91,24.23-2.98,34.04,0,1.9-.74,3.71-.5,5.52.41,3.3,2.07,7.83.25,11.62-4.8,9.72-9.18,19.45-10.34,20.11-3.97,2.14-8.85,8.49-8.93,13.6l2.4,58.27,8.93.58,2.4-8.24-3.56,1.32c.58-3.3-.17-6.51,3.22-9.81l28.77-11.29c3.56-2.64,5.79-6.51,8.27-10.22l-3.39-1.15,5.95-22.42-3.06-1.07-2.48-18.87c-8.1-4.94-3.47-12.69-.17-14.5l17.36-14.75,1.41,2.97,6.45-7.09-1.41-2.23,4.22-.74,1.24-3.63,21.25-10.47h5.29c4.05-2.97,7.28-6.26,13.15-8.74l-.41-3.13,7.11-5.44c1.74-1.73,3.14-4.29,5.37-4.2l.33-3.54-1.32-1.48,3.89-5.77.99-3.87-.58-2.55-2.4-3.63.83-14.18c-1.82-1.73-.83-2.97.17-4.12l-.5-15.66,5.71-9.56c.17-2.64.33-5.27-.58-7.91-8.76,5.19-23.4,14.26-30.84,9.56-3.22.41-6.86.41-10,4.45-2.65-.25-5.04-.74-8.27-.49l-10.5,1.9c-1.9-2.31-3.8-4.53-8.19-2.06l-15.3-.49-2.4,23.82c7.52,6.02,14.22,13.85,17.53,21.84,1.98,4.86-1.65,11.87-2.32,18.05l-7.61,3.3.41,10.63-3.72.58c.91-2.23,1.9-4.45-1.32-4.78-4.13-3.46-7.28-7.42-7.69-12.61,3.14-5.11,4.46-10.96,3.56-17.47l-7.36-1.32c-2.89.66-6.2.66-6.95-1.65-1.98-6.02-3.89-6.35-6.12-5.77l-41.75,13.43h0Z"/>
      <path id="NA" class="country" data-name="Namibia" data-id="NA" d="M395.3,757.96c.58,7.66,1.32,15.33,8.35,20.77l29.19,51.84.74,23.74,5.21,10.96c.33,4.29-1.32,8.57,1.32,12.86l3.64,20.27,15.87,17.55c9.84-10.55,13.39-2.06,15.87,4.7,6.04-.58,12.07-1.15,18.11,0,2.81-2.55,5.71-5.03,10.17-6.92l2.32-90.33,13.39.41,1.9-50.85,32.74-2.88,2.48,6.84c2.32-2.55,5.54-7.33,10.42-7.58,4.38-.16,6.45-2.97,10.75-5.27l-3.14-4.53-21.08,3.46-23.56,5.44-38.03-5.03-6.37-5.36-59.94.66c-2.89-3.79-13.73-12.36-21.58-2.23-2.65-2.97-5.79.91-8.76,1.57h0v-.08Z"/>
      <path id="NE" class="country" data-name="Niger" data-id="NE" d="M295.26,251.86l-1.16,42.77c-1.9,1.07-4.55,0-5.29,4.62-2.15,1.24-4.71,2.06-5.21,4.53l-29.02-.25-5.87,4.94h-11c-.33,2.47-.25,5.36,1.57,6.84,1.65,1.32,1.41,4.04.99,6.43l13.89,18.46,5.04,1.9c2.81-2.47,5.37-3.13,6.61,5.03l17.2,2.47c1.24-2.72.91-6.51,4.05-7.91,4.71-2.64,3.89-7.25,5.62-10.96,3.8-1.81,1.41-4.37,21.58-4.2,5.21,3.3,10.25,4.37,15.79,10.96l4.05.16c.08-1.4,4.22-4.2,6.7-4.7,2.73-1.48,7.52,1.07,13.89,6.68l11.41.99,11-7.83,19.18-.49c2.89,1.15,5.04,3.71,9.26,2.64,3.06-3.46,8.93-6.76,15.63-9.56-1.07-3.05-2.23-6.02-1.24-9.89,1.65-1.4,3.64-1.57,3.89-6.68l23.15-25.63,4.3-40.88,3.31-8.24c-6.61-2.72-11.16-5.27-12.57-14.34-.83-4.94.33-11.37-.17-20.6l-4.13.74c-2.23-2.64-4.46-5.52-7.36-6.51l-32.49-1.15-82.27,54.06-20.34,5.6h0Z"/>
      <path id="NG" class="country" data-name="Nigeria" data-id="NG" d="M349.66,451.54l-2.81-.16-.91,4.86c-4.8,0-9.51-.41-14.3-2.14-11.41,7.09-20.42,5.93-25.05-10.38-3.56-9.07-9.26-12.03-15.3-14.09h-19.84l.83-31.48c3.14-3.96,5.13-9.56,6.86-15.41,5.29-1.32,4.13-5.93,4.38-9.89,5.29-3.46,1.82-8.98-.33-12.69l.33-10.22c.41-2.88-.25-6.02,3.97-8.74,1.65-1.98,3.22-.99,4.88-10.8,2.89-2.23,5.95-4.45,21.58-3.96,5.46,2.88,12.4,5.19,16.21,11.04l3.56-.16c2.23-1.57,2.98-4.37,7.11-4.53,2.32-.08,2.48-2.31,13.64,6.43l11.66,1.07,10.83-7.75,19.43-.41c2.81,1.15,5.13,3.79,8.85,2.64,4.88-4.78,10.75-7.33,16.29-9.64,2.23,3.54,5.29,7.01,8.02,9.15l-1.82,1.48,2.32,9.31c1.07.82,3.06,1.07,3.14,2.55,2.07,9.15-3.06,12.03-9.18,14.01-7.77,6.02-9.76,22.58-14.22,34.53-8.68,2.55-11.58,18.54-18.19,31.73-6.37,1.24-8.02-1.9-12.07-6.18l-13.97.91-.33,3.71c-8.85,4.94-10.91,15.41-15.54,25.22h0Z"/>
      <path id="SN" class="country" data-name="Senegal" data-id="SN" d="M16.62,277.16c-2.48,4.2-4.13,6.43-4.22,9.89-.17,7.83-8.02,10.38-11.99,16.07,3.64,5.36,7.69,10.55,8.27,16.81h15.21c3.31-4.37,8.1-2.97,13.56.99l8.76.66,1.9,2.47-6.37,2.23c-4.38-.91-8.27-2.55-11.82-4.78-2.56,1.48-5.46,2.39-9.09,2.06l-1.65,2.72-13.23.58c-.74,3.54-1.49,7.17-.83,10.71,3.22-.33,6.28.16,9.67-1.65,4.55,1.15,8.85.16,12.98-2.23l22.9.25c8.6,4.86,19.35,5.44,29.27,6.02.5-5.19,3.39-10.3-7.94-18.13,1.74-2.23,1.07-7.33-.41-11.04-.83-2.06.83-2.72,0-4.94-1.07-.58-2.4-2.31-4.13-3.96-1.98-1.9-6.12-7.33-6.12-7.33-2.4-7.17-5.54-10.14-5.54-10.14-7.36,1.24-11.91-7.09-11.91-7.09-6.28-1.73-9.59-.41-12.32-.33-7.28.41-8.76,1.24-14.97.16h0Z"/>
      <path id="SL" class="country" data-name="Sierra Leone" data-id="SL" d="M73.42,417.92l-10.83-5.52c-1.24-3.38-4.55-5.19-7.94-6.92.33-4.7-2.81-5.77-4.96-7.5l-.74-11.29c4.8,1.81,9.01-2.97,13.15-8.24-.99-4.12,8.43-3.71,14.72-3.63,6.28,5.44,12.9,10.71,8.85,23.98,2.73-.99,5.21-2.14,8.19-2.88l-7.52,7.01.25,3.96-13.15,11.04h0Z"/>
      <path id="SZ" class="country" data-name="Swaziland" data-id="SZ" d="M662.44,881.66l.66,12.11c-3.64,1.81-6.37,3.63-9.43,5.44-3.39,0-5.54-.99-6.12-3.71-.83-4.29-.33-7.25,2.07-10.88,1.74-2.64,4.88-5.93,7.03-6.35,1.07-.16,2.73,1.48,3.64,2.8l2.15.58h0Z"/>
      <path id="TD" class="country" data-name="Chad" data-id="TD" d="M563.31,247.32l-107.65-52.83-14.22,4.29c.99,8.41.25,14.92.41,20.03.25,7.5,5.46,12.77,12.65,15.33l-3.22,7.75-4.55,41.45-22.49,24.64c-.74,1.4-1.07,2.8-.99,4.2-.74,1.57-1.65,2.31-2.56,2.72-1.57.99-.83,2.64-.99,3.79-1.32,8.74,17.03,21.67,17.03,21.67.91,3.96,2.32,7.42,3.06,11.62.74,4.45-1.49,9.89-.83,13.76.91,5.69,7.19,6.18,6.37,14.83l-14.39-1.32c-4.22,8.32-1.24,13.76,9.01,16.15l6.78,20.19c10.91-2.47,18.6-1.15,32.82-7.58l12.98-1.32c2.4-4.04,7.44-6.26,5.71-13.27l17.94-1.98c1.41-1.32,2.07-3.3,4.38-3.79,3.56-.08,4.55-2.39,5.46-4.78,1.65-3.87,5.79-5.27,8.85-7.66.58-12.77,10.25-9.15,16.12-11.54l-.74-4.45c-3.39-3.71-6.28-7.83-7.36-19.53l-6.28,1.15-.17-5.69c1.9-2.06,3.31-6.92,2.81-10.38l2.89-1.4-.74-7.42,8.68-11.04-.25-5.44,14.97-.82-1.49-51.34h0Z"/>
      <path id="TG" class="country" data-name="Togo" data-id="TG" d="M248.71,434.15l9.84-2.8-6.53-51.1c-.83-3.87-4.71-5.6-7.69-7.99l1.57-8.32-11.66-1.48c-2.15,4.37-.99,8.49,4.22,12.36,4.22,17.31,3.72,33.95,5.04,50.85l5.21,8.49h0Z"/>
      <path id="TN" class="country" data-name="Tunisia" data-id="TN" d="M383.97,2.06c-2.48,0-12.24-5.03-17.78,2.97,0,0-4.13,1.81-4.38,6.02-.33,6.51-.99,26.78-.99,26.78-.66-1.07-5.62-.25-6.37,3.05-1.07,4.53-6.12,3.3-6.53,5.6-.83,4.53,3.22,8.82,7.94,12.86,1.24,1.07-.41,6.84.74,7.91,3.64,3.21,10.09,5.44,10.09,5.44,1.49,14.92,4.13,25.22,4.13,25.22.99.58,11.41-2.97,7.85-17.55-.41-1.73,21.41-8.74,17.45-22.33-.41-1.4-3.97.25-4.55-2.31-1.32-5.77-1.16-7.17-3.31-8.08-1.07-.41-5.71,3.96-6.61,3.38-2.07-1.24-4.63-4.12-3.56-5.6,1.9-2.47,15.87-11.04,15.96-15.82.25-7.09-2.4-7.75-5.87-9.64-1.98-1.07-1.24-4.37-.66-6.35.41-1.15,7.94-3.71,7.03-6.43-.58-1.81-1.65-2.14-2.07-3.54-.33-1.07-5.95,4.86-6.37,3.96-.66-2.31-.99-3.79-2.15-5.52h0Z"/>
      <path id="ZW" class="country" data-name="Zimbabwe" data-id="ZW" d="M579.27,767.43l4.22,8.49c1.41,1.57,3.14,3.05,3.06,5.69,3.31,5.6,7.36,9.56,11.08,14.18,2.89.91,5.37,2.14,7.11,4.45,1.74,2.14,3.72,4.2,7.28,4.78-1.49,8.57,2.4,15.99,6.45,17.55,4.8.25,9.34,1.07,12.73,4.37,9.76,1.15,10.91,2.47,13.23,3.87,8.02-2.64,11.74,1.81,16.29,4.86,1.07-6.51,4.96-10.14,9.26-13.52,3.39-4.94,6.61-12.77,9.84-19.28,2.4-4.04.5-8.32,0-12.53l.66-5.36c5.87-14.75,4.05-23.57,3.14-33.95l-23.98-9.23-10.09-.74.33-3.38c-8.52-2.72-15.46.99-21.83,4.45l-.25,7.83c-19.6,8.74-20.67,13.43-26.04,18.96l-2.89.91-2.4-2.14-17.12-.25h-.08Z"/>
    </g>
<path id="outlines" d="M395.3,758.04c2.98-.82,6.2-4.7,8.85-1.57,2.65-3.3,10-9.72,21.83,2.39l59.61-.82,6.37,5.52,37.62,4.86,23.81-5.36-16.04-14.34,1.24-50.68,28.69.82-3.14-3.3,3.39-26.78h-1.24c-6.95,2.47-14.3,1.9-21.66,2.06l-2.56,5.03-4.71-3.96,5.21-6.92-7.11-14.26-1.07-32.06-12.24.91v-5.77l-5.46-.82-1.41,2.55-10-.49-3.8,14.5c-4.96-.91-9.59-2.14-17.03,1.65-6.61-2.14-12.57,2.8-21.83-30.08l-3.56-2.06-37.7-.58-17.12,5.85c4.3,12.28,13.39,19.28,13.06,37.5l-2.98,2.8c2.4,8.24,4.63,16.81,10,20.77.5,2.31-.66,3.96-.83,5.69-.58,6.35-3.89,24.23-5.37,21.1,0,0-6.04,1.32-6.61,6.18-.25,2.39-3.22,2.72-4.3,5.6-3.06,8.16-6.2,21.02-8.52,32.8-.25,1.4-2.07.74-2.23,2.06-.66,3.71.08,6.43-.17,10.38-.08,1.15-1.57-.82-1.9.66-.17,1.73,1.32,6.84.91,8.16h0ZM399.6,588.35l6.61-4.04c2.81-6.51,5.04-4.62,7.28-1.73-2.81,2.55-5.79,5.03-6.04,9.56.66,6.26-2.23,5.77-4.3,6.84-.91-1.73-2.23-3.3-1.74-5.27-.08-1.81-.08-3.71-1.82-5.36h0ZM271.44,429.62l-12.65,1.65-6.53-51.1c-.83-3.87-4.71-5.6-7.69-7.99l1.57-8.32,8.19-6.43,8.52.33,6.28-10.05,14.14,2.23v11.21c4.13,4.29,3.39,10.05.33,11.87.25,5.36-.74,9.81-4.3,9.72-2.15,5.85-4.05,12.77-7.11,15.25l-.74,31.65h0ZM197.28,384.62c-2.65-.33-3.56-3.87-5.71-5.93-4.22-4.04-12.24-.99-18.69,2.88-7.77-3.87-8.85-7.33-10.25-10.55,1.57-4.2.5-9.72,2.65-14.18,1.9-3.96,5.13-7.66,10.91-10.8l7.03-14.67c6.04-1.98,11.49-2.72,16.21-4.37,4.55-1.57,8.6-4.2,11.16-7.5,9.01-5.52,20.17-12.61,27.04-10.88-.08,2.23-.08,4.53,1.32,6.43,2.32,1.57,1.82,4.2,1.32,6.84l13.89,18.63,5.29,1.73c.74-.91,4.55-5.52,6.45,4.7l3.14.66-6.12,10.22-8.6-.49-8.27,6.43-12.48-1.48c-7.19-.08-7.85,1.24-10.91,2.14l-27.7-.82,2.32,21.02h0ZM577.86,764.22l-8.76,4.94c-8.68,0-9.18,5.11-12.48,7.91l-2.48-6.84-32.82,2.88-1.9,50.68-13.48-.33-.91,36.59c3.64,4.53,8.6,9.4,11.16,12.69,2.4,3.21.91,9.4-1.49,15.25,6.53,2.72,12.82,2.88,19.1,1.24.91-2.47,2.23-4.2,3.89-5.19,2.73-1.57,4.96-3.54,5.79-6.76l8.19-6.84c5.04.41,8.93,2.47,12.9,5.27,8.35,0,13.31-1.4,16.78-3.13l1.65-7.66,48.04-38.24c-6.04-4.37-9.09-3.38-12.48-4.2-3.47-.82-7.77-7.01-6.61-17.55-3.31-.66-5.46-2.47-7.28-4.62-2.07-3.46-4.8-3.13-7.28-4.62-3.8-5.19-10.67-11.95-11.24-15.91-.25-1.98-1.32-1.81-2.73-4.04-1.74-2.64-3.97-8.41-5.54-11.54h0ZM446.73,415.61l-12.73,20.77,1.74,15.08c5.46,10.63,11.74,20.44,20.26,28.43,5.21-5.85,7.52-10.3,17.94-12.94l9.01,3.96,10.17-2.8c2.48-2.88,2.32-7.5,2.48-11.87,3.47-5.69,7.19-8.65,11-11.29,2.81,2.14,7.77.49,8.1,6.92,3.31,3.71,6.45,5.93,8.85,2.47,2.81,4.12,14.72,2.8,22.9,3.71.5-1.57,1.32-3.54,3.06-6.59,2.73-.41,5.21-1.48,9.43,1.57l17.28-6.02,1.16,2.55,6.95-1.07v-2.55l15.21-1.24,3.39,4.37,1.57-2.39,2.65,1.9,2.23-2.55,7.11-.25c-1.49-4.04-.83-8.82-11.66-11.37l-5.54-11.29c-5.54-5.36-15.46-7.75-16.21-16.32l-4.3-4.12c-3.64.16-6.78,1.73-10.83-4.78-6.53-.99-10.91-1.98-6.7-15.16-3.31-8.08-8.43-11.87-12.9-18.05-9.34,1.81-13.06,1.32-13.39,10.96-2.98,2.39-7.36,3.54-8.68,7.25-1.16,2.72-2.15,4.86-6.28,5.19-1.16.74-2.65,2.23-4.13,3.87l-17.69,1.81c.91,3.3.58,6.35-3.22,10.05-.99.99-1.74,2.23-2.73,3.3l-12.73,1.15c-14.72,6.26-22.16,4.86-32.74,7.33h0ZM399.6,588.35l-13.89-17.88,9.26-5.85-1.07-10.05,11.41-6.84c1.9-1.48,3.39-5.19,6.86.25,6.04-.74,9.59.82,11.49,3.79l4.8-3.3,1.98-19.94c0-6.84-7.77-11.37,1.41-21.18,1.57-6.43-4.22-10.88-10.58-10.55-1.57,1.98-2.15,5.19-6.04,4.37l.17-9.56,2.32-3.46,18.6.25,9.01,3.21c3.39-1.73,7.85,3.38,11,3.87l-.5-15.33c7.03-8.98,12.24-11.62,18.02-12.94l8.85,4.04,10.91-3.05c-2.65,7.17-5.62,13.02-8.35,20.11-4.63,12.03-3.14,26.7-5.21,40.22-10.09,4.45-13.73,12.2-19.02,19.12l-4.38,20.03c-9.51,10.14-17.94,18.3-23.32,17.88,0-5.69-6.28-10.8-11.33-1.4-3.56,2.31-6.12,1.15-8.76-1.48-3.97-5.19-5.21-.82-7.03,1.81l-6.61,3.87h0ZM127.08,456.08l5.29.49,42-11.87,15.05,1.65,2.15-8.9c-.5-7.09-6.53-14.42,1.65-21.26.74-5.19.33-10.88,5.95-14.18l-1.9-17.55c-2.32.08-3.31-2.31-4.46-4.45-2.73-4.62-11.74-4.04-20.09,1.57-3.97-2.8-8.6-4.7-10.17-10.71-5.54-2.06-9.92-.91-13.48,2.14l.66-6.02c-.91-2.31-4.05-1.65-7.69-.25-.91.08-.25,1.57.74,3.38-1.32.49-2.73.58-4.05.82-.91,1.15-2.32,2.39-3.8,2.72-3.8-6.59-5.95-5.36-10.5-1.73-1.57,1.24-2.56,4.29-3.14,6.84-.74,2.97.58,5.85,3.8,5.44l-.33,3.96c2.32.99,1.82,1.4-.33,3.71-.99.99,2.73,5.69,2.32,6.76l-7.11-1.4c-.17,1.15-.41,2.72-.58,3.96l3.31,1.4-2.65,6.92c.33.58-3.14.16-4.05.33v4.37c3.72.99,1.74,9.48-1.65,10.8l4.96,3.13c1.07-.82,4.22,0,6.2,5.36,0,0,4.96,3.13,4.88,7.01-.08,3.13-2.23,3.63-2.73,6.02l-.25,9.56h0ZM456.32,495.39c-3.72-1.65-8.1-5.27-10.75-3.87l-9.34-3.3-18.69-.16h-29.35l-20.01.25,2.07-15.25-5.29-6.76,1.98-2.39-1.32-1.98-3.47,1.07c-4.3-.49-5.87-3.63-6.86-7.09-2.32-.91-5.62-.58-5.62-4.45,4.88-8.49,5.95-20.03,15.54-24.72l.33-3.71,13.73-.66c5.13,3.3,3.47,7.01,12.15,5.93,6.04-10.8,10.34-30.66,18.19-31.56,4.71-11.62,6.12-28.1,14.22-34.86,3.97-1.4,7.36-3.13,8.85-5.69.83-1.48,1.07-6.35.33-8.49-.5-1.57-1.49-.33-3.06-2.39l-2.32-8.9,1.9-1.57,7.19,6.1c.99,5.03,3.56,9.64,3.06,15-.5,7.83-3.72,8.9,4.05,17.88,1.32,2.23,1.65,4.53,1.32,7.01l-14.55-1.48c-1.65,3.96-5.21,12.94,9.09,16.15l6.78,20.27-12.48,20.77,1.74,15.25c5.29,9.81,11.49,20.03,20.09,27.94l.5,15.66h0ZM140.48,107.05l13.23-6.59,2.73.99,4.55-3.96,7.61.66.41-3.54c15.79.74,19.02-3.46,21.83-7.66l13.23-5.44,4.88.16-2.56-3.38.66-2.64v-4.37c5.04-.66,11.49.16,11.49-5.19l21.33.33,2.98-6.1c-4.13-1.48-4.8-7.42-4.3-13.68.41-4.7,0-15.25,0-15.25-1.41-1.73-3.14-3.3-3.56-5.77,1.16-.49,6.53.33,9.76-3.96,1.65-2.23,3.8-6.76,6.61-5.85,3.31,1.07,9.51,1.65,9.92-.41.41-2.23,6.45-7.09,15.21-7.09,16.04.08,36.79-6.02,43.57-4.04,6.78,1.98,15.63-2.64,19.51-2.39,3.97.25,5.13,4.53,10.5.91,1.98-1.4,9.26,4.29,16.21,2.31,0,0-4.13,1.81-4.38,6.02-.33,6.51-.99,26.78-.99,26.78-.66-1.07-5.62-.25-6.37,3.05-1.07,4.53-6.12,3.3-6.53,5.6-.83,4.53,3.22,8.74,7.94,12.86,1.24,1.07-.41,6.84.74,7.91,3.64,3.21,10.09,5.44,10.09,5.44,1.49,14.92,4.13,25.22,4.13,25.22-6.86.49-3.22,6.76,1.41,13.52l.25,38.73s-6.2,1.24-5.79,2.8c.99,3.54,1.16,6.18,5.71,10.22,2.89,2.55,2.98,6.92,2.73,9.81-.25,3.3,3.06,4.78,3.89,4.78,6.78-.16,12.48-3.46,18.93,14.18l-81.28,53.24c-12.07,5.19-31.92,8.24-32.66,7.99-4.55-1.98.74-6.92-.83-10.3-1.49-3.3-3.39-5.85-8.52-5.27-2.73.33-4.22-3.21-5.29-3.05-4.38.74-5.54-4.29-6.53-5.11-3.89-3.54-7.69-4.53-6.78-7.75l-118.48-90.24,2.81-24.48h0ZM70.69,210.32c1.74-12.11-5.87-29.17,17.78-29.59l4.96-36.59,42.08,3.71,3.22-24.72-56.31-4.12c-5.21,7.99-8.27,14.75-16.12,17.88-7.44,2.97-10.34,12.11-12.48,20.03l-22.16,25.3c-.83,5.77-4.13,9.56-8.6,12.53-4.05,5.27-6.53,11.87-7.11,17.64l5.62-5.11c-.08-.08,49.11,3.05,49.11,3.05ZM574.97,211.72l109.14-3.21,3.56,3.46,7.19-.91.74-6.1,8.02-2.23,1.65-7.5,3.47,1.15,4.38-4.62-2.4-11.79,3.8.16-9.26-8.24-25.47-41.95v-5.11c-6.12-3.96-10.58-8.9-13.23-15.08l-.25-3.87-3.89-2.8.99-6.18,11.41,15.25c.99,1.15-.17,1.98.83,3.3,2.98,4.12,8.1,8.24,11.16,10.71,1.57-.49,3.39-.16,4.13-3.3l2.98-19.78-13.39-27.2c-9.01,6.35-18.11,8.82-27.12-.58l-11.08.82c-2.56,1.07-5.21,2.72-6.7,0l-17.86,10.38-29.52-6.59c-4.46-.91-9.18-2.39-12.82-1.73-3.72,2.31-6.45.49-9.09-1.24-1.49,2.64-3.14,5.27-1.65,6.84l1.16,10.71c-2.65,4.2-5.04,8.49,3.22,18.38l5.87,98.73h0v.08ZM385.79,570.47l-24.89-25.71-5.95-15.08,5.46-5.27,1.57-8.49,7.03,1.57c.41-.41.99-.74.66-1.57l-6.04-3.13,1.9-8.65,23.32-1.15v-14.92h28.94l-2.23,3.13-.25,9.72c2.65.99,4.38-1.15,6.04-4.2,4.46-.66,12.57,3.3,10.34,10.96-3.72,4.12-5.37,7.99-4.05,11.54.99,2.64,2.15,5.11,2.89,8.98l-2.23,20.27-4.63,3.38c-2.07-3.46-5.95-4.7-11.33-4.04-1.65-2.06-3.31-4.7-6.45-.58l-12.07,7.42,1.07,9.89-9.09,5.93h0ZM248.71,434.07c-1.32,1.73-1.49,5.44-5.13,3.3-18.19,2.23-25.38,9.89-38.03,14.83l-16.04-5.85,2.15-8.9c-.5-7.09-6.53-14.42,1.65-21.26.74-5.19.33-10.88,5.95-14.18l-4.3-38.32,27.7.82c3.72-1.98,7.61-2.23,11.58-2.23-2.15,4.37-.99,8.49,4.22,12.36,4.22,17.31,3.72,33.95,5.04,50.85l5.21,8.57h0ZM26.95,359.82c-.5,1.48-.33,2.23,1.57,2.23.74.91,3.56-5.69,3.14.99l2.48.25c-.83,3.71,1.65,8.24,4.13,9.07,3.06,1.07,4.8,4.62,6.53,6.18l4.22,7.75c2.89,1.98,6.86.58,13.15-7.83-.66-2.8,3.22-4.29,14.72-3.54,9.51,6.84,12.32,14.75,8.76,23.74,4.22-.99,6.61-3.87,13.64-2.06,3.56,4.45,5.71,9.31,2.81,15.91,3.89,1.48,5.29,5.69,10.75-1.48-.33-1.65.99-2.23,2.65-.99,1.07.74,2.73-.41,4.38,0l2.89-7.42-3.56-1.4.66-3.87,7.19,1.48c-.58-2.64-4.13-6.1-1.49-7.91,1.16-1.24.66-2.14-.58-3.05l.17-3.38c-6.95-.82-2.98-8.57-.58-12.44l-4.3-3.87-.5-8.57-3.56,2.55-1.32-1.98,4.71-4.29-6.37-4.86c1.07-3.38-.33-7.42-1.49-11.62l-4.46-.99c.08,1.9-.58,3.38-2.56,4.04-1.65-.49-2.73.58-3.06,3.21l-7.94-3.3-6.28,4.53c.83-2.06-1.24-3.3-2.56-4.78l-3.47,2.31c-2.73.91-3.06-.58-3.06-2.39.58-.58,1.24-1.07,1.49-1.98-9.84-1.48-20.09-.91-29.02-6.26h-2.81l-1.24,15.16-7.69.16c-7.61,2.88-11.24,9.81-12.15,10.71h0ZM8.6,320.01h15.21c3.31-4.37,8.1-2.97,13.56.99l8.76.66,1.9,2.47-6.37,2.23c-4.38-.91-8.27-2.55-11.82-4.78-2.56,1.48-5.46,2.39-9.09,2.06l-1.65,2.72-13.15.58,2.65-6.92h0ZM5.21,337.73l.91,2.55c1.9,1.32,5.54-1.32,5.29,4.94,1.74.91,3.89-.91,5.21,3.3,2.15,1.07,7.61-8.98,5.62,6.02l4.8,5.27c2.89-4.45,7.19-8.9,11.66-10.47l7.85-.16,1.32-15.16h-20.34c-4.13,1.9-8.35,3.05-12.9,2.06-2.81.99-5.79,1.48-9.43,1.65h0ZM388.77,502.97l-22.41,1.07-4.46-2.97,6.7-12.86,20.01-.25.17,15h0ZM326.84,514.67c0,1.32-1.07,2.39-2.4,2.39s-2.4-1.07-2.4-2.39,1.07-2.39,2.4-2.39,2.4,1.07,2.4,2.39ZM336.27,495.39c0,1.07-.83,1.9-1.9,1.9s-1.9-.82-1.9-1.9.83-1.9,1.9-1.9,1.9.82,1.9,1.9h0ZM127,456.08l-11.82-4.12-41.75-34.04,13.23-11.04-.25-3.96,6.45-6.26c1.9-1.32,4.3-.41,6.45-.16,5.54,8.08,4.05,11.87,2.56,15.99,3.14.82,5.54,6.02,10.75-1.4-.17-2.06,1.16-2.06,3.31-.82v3.96c1.74.74,2.98,4.04,1.32,7.17-.91,1.65-1.49,3.3-3.39,3.63l5.46,3.3c1.57-.25,2.89-1.4,6.12,5.44.66.99,8.85,4.37,2.07,12.44l-.5,9.89h0ZM624.74,933.17c-.66,1.4-1.65,2.14-2.65,3.21-.83.82-1.74,1.57-2.65,2.23-.58.16-1.24.33-1.82.66-.99,0-2.73.41-3.97.91-.91.33-1.74.74-2.4,1.4-.58.58-.74,1.4-.91,2.06-.17.74-1.74,1.73-2.32,1.9-.83.25-1.98,0-2.89,0-1.74,0-2.65-.41-3.64-1.73-1.24-1.65-2.89-2.97-3.97-4.86-.83-1.32-1.49-2.14-1.98-3.54-.33-1.07-.25-2.23-.25-3.3s.66-2.72,1.9-3.3c.17,0,.33-.16.41-.25,1.49-.74,1.82-2.39,2.89-3.46,1.16-1.15,2.73-2.23,3.97-3.3.83-.66,1.98-1.32,2.89-1.73,1.41-.66,2.73-1.07,4.22-1.4,1.07-.25,2.4-.66,3.31-.91h1.16c1.32-.25,2.98.41,3.64,1.32.99,1.32,2.15,2.55,3.14,3.79.5.66.5,2.23.91,3.13.58,1.24,1.32,2.14,1.74,3.46s-.17,2.72-.74,3.87h0v-.16ZM396.29,58.43s2.07,7.99-4.13,12.36c-3.14,2.23-13.23,9.64-13.23,9.64.83,4.53,1.9,15.91-7.94,17.39-6.78,1.07-3.22,6.51,1.32,13.93l.25,38.57s-6.04,1.15-5.62,2.8c.99,3.54.99,6.1,5.54,10.14,2.89,2.55,2.98,7.25,2.73,10.05-.25,3.3,3.39,4.7,4.3,4.7,6.78-.16,12.15-3.38,18.6,14.26l31.92.99c3.72.82,7.69,6.43,7.69,6.43l18.27-5.19,107.49,52.99-.17-8.57c11.91.99,13.23-.41,13.23-.41l-7.36-125.19c-4.3-5.93-8.6-11.7-3.39-18.21,0,0,0-6.92-1.24-10.88-1.32-4.12,2.4-6.92,2.4-6.92,0-5.27-10.25-4.94-15.63-5.19-7.03-.33-11.82-1.32-10.58-6.59,0,0-18.44-6.59-25.63-2.23-3.8,2.31-11.82,6.02-13.23,10.71-.99,3.21,0,5.36,1.82,8.57,3.31,5.69-7.94,25.14-20.84,9.56,0,0-16.95-4.62-26.46-6.76-9.34-2.06-15.79-10.22-11.91-15.16.41-.49-25.38-7.91-25.38-7.91-11.99,1.9-20.67-1.57-22.82-3.87h0ZM138.82,123.37l2.15-16.24,12.82-6.59,2.89.82,4.55-3.71,7.52.58.41-3.63c15.79.74,18.93-3.46,21.75-7.66l13.23-5.36h4.96l-2.48-3.3.83-3.05-.41-3.96c5.13-.66,11.58.16,11.58-5.19l21.41.33,2.89-6.59c-4.13-1.48-4.8-7.42-4.3-13.68.41-4.7,0-15.25,0-15.25-1.41-1.73-3.14-3.3-3.56-5.77-3.47-.66-7.69-.74-9.09-2.8-4.96-.82-9.92-1.32-14.39-.82-8.19.82-11.58-2.14-14.88-9.81-7.85-.49-16.21,16.32-22.32,24.72-14.72,4.04-25.3,10.63-32.58,19.37.99,3.54-.74,4.86-4.3,7.17-2.32,1.48-10.42,14.42-7.69,21.59,0,5.6-4.38,15-17.03,21.26,0,0-5.87,5.52-15.21,8.49-3.97,1.32-13.06,2.31-15.79,4.86l57.05,4.2h0ZM858.98,882.48l39.69-84.14c3.06-9.48,4.8-18.96,9.34-28.52,3.06-4.04,6.86-7.75,4.46-13.68l.83-8.16c.41-2.47,1.82-2.39,3.89-.41l1.24,4.94c1.49-.49,2.89-.99,2.81-3.38l-4.05-43.6-7.61-8.16-4.38,3.63-1.16,11.21-2.56,2.23c-1.32-.41-3.31-2.39-2.73,2.14l-3.8,4.12c-4.3-7.91-4.88-.91-3.72,2.55,0,1.48.33,4.04-1.74,1.73l-3.06,4.94,4.38,3.21h-2.56l-5.62,4.04.83-4.94-5.62,5.6,1.32,6.84-3.8.16.74-3.05c-3.47-2.31-6.37,2.55-9.43,4.2l3.47,5.6-4.3.41-1.74-5.19-6.95,1.15c.25,2.47-2.56,3.13-5.13,4.04l-.41-3.46-3.89,3.87-6.78.33-1.32,5.85-9.18,13.19c7.03,6.1,4.13,19.94,6.04,30.08-2.56,8.16-7.61,14.42-12.07,21.1-5.21,3.46-7.61,6.92-8.35,10.3-.74,3.3-2.4,9.81-1.41,13.1,1.16,3.87,3.31,2.55,3.39,6.43l1.24,6.35c-6.37,24.56,9.51,24.15,12.98,30.16,1.57-.74,3.56.49,5.04-.33,3.39-1.81,7.69-6.35,12.24-4.78,3.8.99,6.7-.49,9.43-1.73h0ZM180.08,163.59l-21.08.58.99,121.23,5.54,1.98-3.89,11.87-62.09-3.46-7.11,5.03-3.89-1.4-2.73-7.99-3.56-.91c-7.03,15.25-8.1,13.43-10.67,16.07.41,1.57-.58,3.05,0,4.45,1.57,4.45,2.56,8.98.17,10.96,3.22,2.88,7.44,5.19,8.6,9.31.25,5.27,0,9.31-1.49,10.8-1.41,1.4.25,4.7,3.22,2.23l2.89-1.73c.91,1.48,2.98,2.31,2.73,4.53l6.28-4.29,7.69,3.21c.74-1.15-.17-2.97,2.81-3.38,1.57.08,2.65-1.07,3.14-3.79l4.22.99c1.16,3.96,2.48,7.91,1.82,11.62l6.2,4.7-4.71,4.37,1.32,1.98,3.47-2.31.5,8.32,4.38,4.04c1.82-1.81,4.63-4.04,6.86-2.88,2.07,1.07,2.98,5.19,4.96,3.87,1.98-1.32,2.4-2.64,5.54-2.64s-1.98-4.04.91-3.96c1.32,0,3.47-1.57,5.87-.91,2.23.58-.58,8.98,1.07,7.17,4.13-4.45,12.24-2.72,13.06-1.73,2.32-8.16-2.15-15.66,13.48-25.14l6.95-14.5c9.26-3.87,19.1-2.14,27.62-12.11,10.67-7.09,21.33-12.44,27.12-10.88h10.75l6.04-5.11,28.94.33c.74-1.4,1.16-2.47,5.13-4.45,0-3.46,3.14-3.71,5.37-4.78l1.16-42.77-10.83,1.57c-4.3-2.8-.66-3.71-.66-9.89-2.48-5.52-5.54-6.35-8.6-5.77-2.65.49-3.89-3.3-5.29-3.05-2.4.49-5.04-1.81-6.7-5.27-.58-1.15-2.07-1.73-3.06-2.39-2.23-1.57-4.3-2.72-3.72-5.11-.33-.33-52.09-39.72-76.65-58.6h-.08ZM70.61,210.07c1.74-12.11-5.87-29.17,17.78-29.59l4.96-36.59,42.08,3.71,2.32-16.48,42.42,32.47-21.17.49,1.07,121.31,5.37,1.9-3.64,11.79-62.26-3.38-7.11,5.03-3.8-1.24-2.73-8.24-3.8-.91s-6.86,16.89-11.24,15.16c0,0-1.98-2.14-4.13-4.37-1.9-1.98-4.05-3.96-5.54-6.76-2.07-3.96-3.56-10.22-6.37-9.72-6.12.99-10.75-7.09-10.75-7.09,0,0-7.11-1.98-12.24-.58-6.61,1.81-14.06-.08-15.38.82l6.04-16.81.58-19.53-3.72-5.85c1.98-3.46,8.02-6.68,4.05-17.06-.41-1.15-2.56-.58-2.56-.58l-2.56-7.66,3.14-3.13,49.2,2.88h0ZM646.73,729.61l2.89,7.58-.25,3.79,10.09.74,23.73,9.23c2.4,13.19.91,24.23-2.98,34.04,0,1.9-.74,3.71-.5,5.52.41,3.3,2.07,7.83.25,11.62-4.8,9.72-9.18,19.45-10.34,20.11-3.97,2.14-8.85,8.49-8.93,13.6l2.4,58.27,8.93.58,2.4-8.24-3.56,1.32c.58-3.3-.17-6.51,3.22-9.81l28.77-11.29c3.56-2.64,5.79-6.51,8.27-10.22l-3.39-1.15,5.95-22.42-3.06-1.07-2.48-18.87c-8.1-4.94-3.47-12.69-.17-14.5l17.36-14.75,1.41,2.97,6.45-7.09-1.41-2.23,4.22-.74,1.24-3.63,21.25-10.47h5.29c4.05-2.97,7.28-6.26,13.15-8.74l-.41-3.13,7.11-5.44c1.74-1.73,3.14-4.29,5.37-4.2l.33-3.54-1.32-1.48,3.89-5.77.99-3.87-.58-2.55-2.4-3.63.83-14.18c-1.82-1.73-.83-2.97.17-4.12l-.5-15.66,5.71-9.56c.17-2.64.33-5.27-.58-7.91-8.76,5.19-23.4,14.26-30.84,9.56-3.22.41-6.86.41-10,4.45-2.65-.25-5.04-.74-8.27-.49l-10.5,1.9c-1.9-2.31-3.8-4.53-8.19-2.06l-15.3-.49-2.4,23.82c7.52,6.02,14.22,13.85,17.53,21.84,1.98,4.86-1.65,11.87-2.32,18.05l-7.61,3.3.41,10.63-3.72.58c.91-2.23,1.9-4.45-1.32-4.78-4.13-3.46-7.28-7.42-7.69-12.61,3.14-5.11,4.46-10.96,3.56-17.47l-7.36-1.32c-2.89.66-6.2.66-6.95-1.65-1.98-6.02-3.89-6.35-6.12-5.77l-41.75,13.43h0ZM395.3,757.96c.58,7.66,1.32,15.33,8.35,20.77l29.19,51.84.74,23.74,5.21,10.96c.33,4.29-1.32,8.57,1.32,12.86l3.64,20.27,15.87,17.55c9.84-10.55,13.39-2.06,15.87,4.7,6.04-.58,12.07-1.15,18.11,0,2.81-2.55,5.71-5.03,10.17-6.92l2.32-90.33,13.39.41,1.9-50.85,32.74-2.88,2.48,6.84c2.32-2.55,5.54-7.33,10.42-7.58,4.38-.16,6.45-2.97,10.75-5.27l-3.14-4.53-21.08,3.46-23.56,5.44-38.03-5.03-6.37-5.36-59.94.66c-2.89-3.79-13.73-12.36-21.58-2.23-2.65-2.97-5.79.91-8.76,1.57h0v-.08ZM295.26,251.86l-1.16,42.77c-1.9,1.07-4.55,0-5.29,4.62-2.15,1.24-4.71,2.06-5.21,4.53l-29.02-.25-5.87,4.94h-11c-.33,2.47-.25,5.36,1.57,6.84,1.65,1.32,1.41,4.04.99,6.43l13.89,18.46,5.04,1.9c2.81-2.47,5.37-3.13,6.61,5.03l17.2,2.47c1.24-2.72.91-6.51,4.05-7.91,4.71-2.64,3.89-7.25,5.62-10.96,3.8-1.81,1.41-4.37,21.58-4.2,5.21,3.3,10.25,4.37,15.79,10.96l4.05.16c.08-1.4,4.22-4.2,6.7-4.7,2.73-1.48,7.52,1.07,13.89,6.68l11.41.99,11-7.83,19.18-.49c2.89,1.15,5.04,3.71,9.26,2.64,3.06-3.46,8.93-6.76,15.63-9.56-1.07-3.05-2.23-6.02-1.24-9.89,1.65-1.4,3.64-1.57,3.89-6.68l23.15-25.63,4.3-40.88,3.31-8.24c-6.61-2.72-11.16-5.27-12.57-14.34-.83-4.94.33-11.37-.17-20.6l-4.13.74c-2.23-2.64-4.46-5.52-7.36-6.51l-32.49-1.15-82.27,54.06-20.34,5.6h0ZM349.66,451.54l-2.81-.16-.91,4.86c-4.8,0-9.51-.41-14.3-2.14-11.41,7.09-20.42,5.93-25.05-10.38-3.56-9.07-9.26-12.03-15.3-14.09h-19.84l.83-31.48c3.14-3.96,5.13-9.56,6.86-15.41,5.29-1.32,4.13-5.93,4.38-9.89,5.29-3.46,1.82-8.98-.33-12.69l.33-10.22c.41-2.88-.25-6.02,3.97-8.74,1.65-1.98,3.22-.99,4.88-10.8,2.89-2.23,5.95-4.45,21.58-3.96,5.46,2.88,12.4,5.19,16.21,11.04l3.56-.16c2.23-1.57,2.98-4.37,7.11-4.53,2.32-.08,2.48-2.31,13.64,6.43l11.66,1.07,10.83-7.75,19.43-.41c2.81,1.15,5.13,3.79,8.85,2.64,4.88-4.78,10.75-7.33,16.29-9.64,2.23,3.54,5.29,7.01,8.02,9.15l-1.82,1.48,2.32,9.31c1.07.82,3.06,1.07,3.14,2.55,2.07,9.15-3.06,12.03-9.18,14.01-7.77,6.02-9.76,22.58-14.22,34.53-8.68,2.55-11.58,18.54-18.19,31.73-6.37,1.24-8.02-1.9-12.07-6.18l-13.97.91-.33,3.71c-8.85,4.94-10.91,15.41-15.54,25.22h0ZM16.62,277.16c-2.48,4.2-4.13,6.43-4.22,9.89-.17,7.83-8.02,10.38-11.99,16.07,3.64,5.36,7.69,10.55,8.27,16.81h15.21c3.31-4.37,8.1-2.97,13.56.99l8.76.66,1.9,2.47-6.37,2.23c-4.38-.91-8.27-2.55-11.82-4.78-2.56,1.48-5.46,2.39-9.09,2.06l-1.65,2.72-13.23.58c-.74,3.54-1.49,7.17-.83,10.71,3.22-.33,6.28.16,9.67-1.65,4.55,1.15,8.85.16,12.98-2.23l22.9.25c8.6,4.86,19.35,5.44,29.27,6.02.5-5.19,3.39-10.3-7.94-18.13,1.74-2.23,1.07-7.33-.41-11.04-.83-2.06.83-2.72,0-4.94-1.07-.58-2.4-2.31-4.13-3.96-1.98-1.9-6.12-7.33-6.12-7.33-2.4-7.17-5.54-10.14-5.54-10.14-7.36,1.24-11.91-7.09-11.91-7.09-6.28-1.73-9.59-.41-12.32-.33-7.28.41-8.76,1.24-14.97.16h0ZM73.42,417.92l-10.83-5.52c-1.24-3.38-4.55-5.19-7.94-6.92.33-4.7-2.81-5.77-4.96-7.5l-.74-11.29c4.8,1.81,9.01-2.97,13.15-8.24-.99-4.12,8.43-3.71,14.72-3.63,6.28,5.44,12.9,10.71,8.85,23.98,2.73-.99,5.21-2.14,8.19-2.88l-7.52,7.01.25,3.96-13.15,11.04h0ZM662.44,881.66l.66,12.11c-3.64,1.81-6.37,3.63-9.43,5.44-3.39,0-5.54-.99-6.12-3.71-.83-4.29-.33-7.25,2.07-10.88,1.74-2.64,4.88-5.93,7.03-6.35,1.07-.16,2.73,1.48,3.64,2.8l2.15.58h0ZM563.31,247.32l-107.65-52.83-14.22,4.29c.99,8.41.25,14.92.41,20.03.25,7.5,5.46,12.77,12.65,15.33l-3.22,7.75-4.55,41.45-22.49,24.64c-.74,1.4-1.07,2.8-.99,4.2-.74,1.57-1.65,2.31-2.56,2.72-1.57.99-.83,2.64-.99,3.79-1.32,8.74,17.03,21.67,17.03,21.67.91,3.96,2.32,7.42,3.06,11.62.74,4.45-1.49,9.89-.83,13.76.91,5.69,7.19,6.18,6.37,14.83l-14.39-1.32c-4.22,8.32-1.24,13.76,9.01,16.15l6.78,20.19c10.91-2.47,18.6-1.15,32.82-7.58l12.98-1.32c2.4-4.04,7.44-6.26,5.71-13.27l17.94-1.98c1.41-1.32,2.07-3.3,4.38-3.79,3.56-.08,4.55-2.39,5.46-4.78,1.65-3.87,5.79-5.27,8.85-7.66.58-12.77,10.25-9.15,16.12-11.54l-.74-4.45c-3.39-3.71-6.28-7.83-7.36-19.53l-6.28,1.15-.17-5.69c1.9-2.06,3.31-6.92,2.81-10.38l2.89-1.4-.74-7.42,8.68-11.04-.25-5.44,14.97-.82-1.49-51.34h0ZM248.71,434.15l9.84-2.8-6.53-51.1c-.83-3.87-4.71-5.6-7.69-7.99l1.57-8.32-11.66-1.48c-2.15,4.37-.99,8.49,4.22,12.36,4.22,17.31,3.72,33.95,5.04,50.85l5.21,8.49h0ZM383.97,2.06c-2.48,0-12.24-5.03-17.78,2.97,0,0-4.13,1.81-4.38,6.02-.33,6.51-.99,26.78-.99,26.78-.66-1.07-5.62-.25-6.37,3.05-1.07,4.53-6.12,3.3-6.53,5.6-.83,4.53,3.22,8.82,7.94,12.86,1.24,1.07-.41,6.84.74,7.91,3.64,3.21,10.09,5.44,10.09,5.44,1.49,14.92,4.13,25.22,4.13,25.22.99.58,11.41-2.97,7.85-17.55-.41-1.73,21.41-8.74,17.45-22.33-.41-1.4-3.97.25-4.55-2.31-1.32-5.77-1.16-7.17-3.31-8.08-1.07-.41-5.71,3.96-6.61,3.38-2.07-1.24-4.63-4.12-3.56-5.6,1.9-2.47,15.87-11.04,15.96-15.82.25-7.09-2.4-7.75-5.87-9.64-1.98-1.07-1.24-4.37-.66-6.35.41-1.15,7.94-3.71,7.03-6.43-.58-1.81-1.65-2.14-2.07-3.54-.33-1.07-5.95,4.86-6.37,3.96-.66-2.31-.99-3.79-2.15-5.52h0ZM579.27,767.43l4.22,8.49c1.41,1.57,3.14,3.05,3.06,5.69,3.31,5.6,7.36,9.56,11.08,14.18,2.89.91,5.37,2.14,7.11,4.45,1.74,2.14,3.72,4.2,7.28,4.78-1.49,8.57,2.4,15.99,6.45,17.55,4.8.25,9.34,1.07,12.73,4.37,9.76,1.15,10.91,2.47,13.23,3.87,8.02-2.64,11.74,1.81,16.29,4.86,1.07-6.51,4.96-10.14,9.26-13.52,3.39-4.94,6.61-12.77,9.84-19.28,2.4-4.04.5-8.32,0-12.53l.66-5.36c5.87-14.75,4.05-23.57,3.14-33.95l-23.98-9.23-10.09-.74.33-3.38c-8.52-2.72-15.46.99-21.83,4.45l-.25,7.83c-19.6,8.74-20.67,13.43-26.04,18.96l-2.89.91-2.4-2.14-17.12-.25h-.08ZM814,540.96c-1.82,2.8-3.8,5.44-7.77,5.52-1.49,3.96-3.39,7.5-8.35,8.74-5.46,9.81-9.59,21.1-16.37,29.34l-19.02-12.69-2.98-11.04-57.96-36.26,19.1-29.09.41-16.32-6.53-5.36c-.83-6.26-2.32-11.95-7.44-14.26l6.78-5.85,18.85-.82,11.74.99c4.05,2.06,6.12,2.14,16.78,10.96l21.33,3.21c3.39-1.15,6.61-2.88,8.93-7.66,5.13-.74,10.67-5.19,17.36,1.15,2.23.74,5.71.41,9.18,0-3.97,6.35-8.19,11.46-12.32,16.73l.33,52.83,7.94,9.97h0v-.08ZM638.8,555.22l1.98-1.9h2.4l1.24,3.46,6.78-1.32.33-4.29,8.52-.49c-2.81,4.86,1.41,7.58,3.14,10.05-5.71,13.27-10.58,17.97-14.97,18.21-5.87,0-5.13,2.14-5.71,4.04-.41-5.93,0-11.46.25-16.24.58-5.93-1.41-10.3-3.97-11.54h0ZM493.53,468.19c-2.4,7.17-5.29,12.28-8.35,20.11-3.97,10.22-3.06,26.04-5.13,40.05-10.42,4.7-13.73,12.28-19.1,19.04l-4.13,19.86c-7.52,7.33-14.55,16.81-23.65,18.05-.58-11.13-10.17-5.77-11.24-1.4-4.63,3.05-6.12,0-8.68-1.07-3.31,2.39-5.71,5.19-5.79,9.23.5,6.43-2.48,6.1-4.55,7.33l1.24,4.86,17.2-5.85,37.7.66,3.47,2.06c8.6,31.65,15.54,28.52,21.66,30.08,9.59-3.96,12.15-1.81,17.2-1.81l3.72-14.42,10.09.58,1.32-2.64,5.62.91v5.85l12.24-.91,1.24,31.89,6.95,14.34-5.29,7.09,4.8,4.04,2.56-5.11,15.87-.25,5.79-1.9h4.96l1.82,7.01,9.26-3.05c.5,2.14,1.41,3.71,2.65,4.86,2.98,2.8,8.6,6.68,13.64,6.76,3.56,0,6.37-3.54,9.51-2.88,4.22,5.85,9.26,7.5,14.47,7.99,3.89,6.02,6.53,13.35,17.61,12.2l4.3,2.97-.33-15.41c-7.69,2.47-12.32-1.07-16.37-6.02.74-6.1,3.22-11.62,6.04-16.98.25-6.26-.58-12.03-2.15-18.3-.33-1.4,1.49-6.51,3.72-9.48l24.97-6.1c-2.56-13.93-11.66-16.73-14.3-26.62-3.22-12.03-4.71-26.54-3.06-40.63-.5-6.59-3.47-10.14-7.85-11.95l7.44-10.63,6.04-6.59.91-23.08,8.43-12.77,13.64-12.2-8.19-5.36v-14.59l-17.03-14.34c-1.49.16-2.23,1.65-3.31,2.55-3.39,1.07-6.61-.58-9.84-.99-1.74,3.96-9.01,1.9-9.84-.41-.25-.66.33-1.98-.66-2.31-2.15-2.88-4.38-4.86-6.45-6.68l-7.11.33-2.32,2.64-2.56-2.14-1.65,2.55-3.39-4.45-15.3,1.32v2.47l-6.78,1.24-1.07-2.64-17.36,6.1c-4.88-3.54-6.61-1.57-9.51-1.73l-3.06,6.59c-14.39-.58-20.42-.58-22.82-3.71-4.55,5.03-5.71-1.15-8.43-1.9-1.57-7.33-5.79-5.11-8.68-7.58-5.37,3.63-8.27,7.17-10.83,10.8.33,4.78-.5,8.9-1.9,12.44h0ZM825.82,334.35l-8.1,6.02c-1.41,4.12-.66,7.33-1.82,9.31-4.63,7.91-4.05,8.49-2.65,10.22,1.98,2.39,7.11.66,9.76-.91l4.22,1.81,4.71-7.17c-2.89-2.47-5.87-1.15-8.76-1.32.83-3.54,4.8-4.37,7.69-6.18,2.15-6.35-2.32-10.55-5.04-11.79h0ZM900.32,400.86l-39.85,45.33-15.54-.25c-1.9.49-9.09,4.94-13.23,8.57-3.39,2.97-8.6,4.7-13.97,7.17-3.14,0-7.03,1.15-9.26-.41-5.21-5.03-11.16-2.55-17.12-.74-1.98,3.54-4.63,6.43-9.01,7.58l-21.33-3.3c-4.8-4.04-10.17-7.83-16.7-10.88l-11.82-.82v-9.56l-9.34-3.38-6.7-15.33-9.67-7.66c1.82-2.88-2.89-5.27-5.29-7.83-3.31.74-6.53.08-9.84-1.65l2.89-3.46-.17-4.45,8.52.16c1.82-1.15,3.89-1.57,5.29-4.62l-.25-24.89,4.05-6.35,4.22.16,1.9-10.63c5.13-6.26,6.95-13.93,15.38-18.79l2.23-18.38,6.78-.16.91-2.23h3.31c0,.08,2.81,4.7,2.81,4.7l4.05-10.71c2.65,1.73,6.2,1.81,7.69,5.52l6.78-1.32,1.16-2.14,1.24-.25,1.65,2.88c2.15-1.32,4.88-2.64,8.27-.41.99.41,2.15.66,4.8-.82,2.73,1.48,4.38,4.45,8.27,4.29,8.76,7.58,17.2,15.49,24.64,24.48-.66.66-.99,3.05-1.49,8.49l-3.22,5.77c-2.56,4.29.58,7.99,5.54,6.26l4.38-1.65,4.38,1.81c-5.29,6.1,7.28,16.65,18.6,27.11l40.84,13.02,13.23-.25h0ZM753.56,308.06c2.56,1.73,5.04,1.48,7.61,5.44l6.78-1.32,1.32-2.14,1.07-.33,1.49,2.8c3.39-1.81,6.45-1.9,8.68-.16,1.32,1.07,3.22-.41,4.71-.91,2.65,2.14,5.21,4.45,8.1,4.37,9.26,7.66,17.28,15.91,24.72,24.39l8.02-5.6c-1.16-3.05-2.65-5.85-8.1-6.02-.25-2.47-1.32-4.62-4.8-5.93-.74-2.97-3.31-2.88-5.29-3.71-1.65-4.7-5.79-7.25-9.18-10.47-3.8.91-5.54-1.65-7.36-4.04l-2.89-.58-2.23,1.4c-2.15-1.81-2.73-4.2-3.39-6.68l-3.14-.82.83,4.29c-1.9,1.15-2.89-1.98-3.89-5.27l-6.28-9.15c-4.13-19.12-7.69-21.51-11.41-26.7-.99,2.39-1.16,5.27-2.89,6.59l-9.34,4.86c-1.49,2.64-3.8,3.38-6.28,3.38-3.47,16.57-5.29,27.28-5.13,40.71h7.19l.66-2.31,3.31.16,2.73,4.29,4.38-10.55h0ZM704.2,654.36l8.27,27.03-2.4,23.98c4.88,4.37,9.76,7.91,16.62,19.37.83,1.4,1.74,5.03,1.49,7.91l-3.14,12.69-7.44,3.21.58,11.13h-3.97c2.07-5.11,0-4.12-.83-4.45-5.37-3.38-7.44-8.41-8.43-12.94,4.38-6.76,4.13-12.2,3.64-17.47l-7.28-1.32c-5.62,1.4-6.78-.66-7.28-2.55-3.06-7.17-4.46-4.37-5.62-4.86l-4.38-6.02,7.69-14.18,5.95-.66-4.05-5.27,3.56-18.38,3.39-2.47-9.76-19.28c2.89,2.47,6.04,3.38,13.39,4.53h0ZM658.23,532.47l-6.12,4.86h-2.07l-1.24-1.73c-5.37,5.36-9.43,11.46-13.56,17.39,1.49.33,2.73,1.07,3.56,2.23l1.98-1.9,2.32.16,1.16,3.13,7.03-1.4.33-4.2,8.68-.49c1.24-1.73,2.4-3.46,4.3-5.19l-6.37-12.86h0ZM713.38,191.78l-4.46,4.53-3.72-.82-1.74,7.42-8.02,2.06-.74,6.02-7.03.82-3.39-3.46-109.22,3.3,1.32,27.28c-4.63.33-9.43.33-13.23-.16l.17,8.65,1.24,51.59-14.8.82.17,5.52-8.43,10.71.58,7.58-2.81,1.32c-.25,4.78-.83,8.9-2.81,10.22v6.18l6.28-1.32c1.24,6.92,1.57,14.18,7.36,19.45l.74,4.62-2.73.41c4.63,5.77,10,11.21,13.06,17.8-5.21,15.99,2.15,13.76,6.7,15.74v-.25l11.99-23.41h11.16l3.72,7.09,5.37-.49h16.21v-6.1l16.87.58.17,4.78,7.69-2.47v-4.7l8.85-3.21,13.39,8.74,14.22-18.13-.83-11.46-4.88-3.63h9.43v-4.7l5.37,2.14,4.96,27.61,6.2,2.31,3.72,7.01v9.72l6.37-2.31h0l-.17-16.81,4.13-6.18h4.22c0,.08,2.07-10.55,2.07-10.55,4.96-6.1,6.95-13.93,14.97-18.38l2.56-20.11c-1.49-14.18,2.89-26.45,4.96-39.48,2.07-.82,4.38.74,6.12-3.21l9.26-4.7c1.82-1.24,2.4-4.04,2.98-6.92-1.24-2.8-3.06-2.31-4.71-2.64-2.73-5.19-7.28-5.69-11.16-7.66l-5.46-33.05-4.3-4.62c.91-11.87-13.06-14.01-19.93-21.1h0ZM832.11,353.47l-4.88,7.58c-4.71,6.76,8.19,17.14,18.85,27.03l41.18,13.19,13.23-.58-39.94,45.57-16.12-.33c-5.13,2.88-10.17,5.85-13.81,9.56-4.22,2.64-8.93,4.2-13.39,6.26-2.73,6.02-7.36,10.96-11.58,16.15l.17,52.91,8.1,10.14,18.6-20.77,31.17-29.34,3.56-.41,13.06-12.36.5-2.47c7.19-5.44,16.12-14.59,18.36-19.04,3.97-7.99,9.01-14.67,14.72-21.18l12.32-35.36c2.4-2.31,4.22-5.36,5.71-8.9.66-3.71,2.81-5.03,4.55-7.09l1.41-17.72c3.97.58,2.07-7.25,2.32-12.11-1.57-1.4-3.22-3.63,0-5.44v-4.45c-2.89.25-5.79-3.05-8.6-.82-3.56,3.3-8.27,5.69-13.73,6.18-6.04.49-10.91,3.96-13.48,3.13-4.05,3.38-9.26,4.53-16.04,2.55-4.46,3.96-7.44,9.15-21.91,5.52l-9.18,6.59c-14.3,3.87-18.02-7.58-25.14-14.01h0ZM707.84,387.1h0l-6.45,2.31v-9.72l-3.72-7.01-6.2-2.31-4.96-27.61-5.37-2.14v4.7h-9.43l4.88,3.63.83,11.46-14.22,18.13-13.39-8.74-8.85,3.21v4.7l-7.69,2.47-.17-4.78-16.87-.58v6.1h-16.04l-5.37.49-3.72-7.09h-11.16l-11.99,23.41v.25c.17.08.33.08.41.16,1.74,2.39,2.48,5.36,10.5,4.45l4.63,4.2c-.99,7.01,9.43,10.88,15.46,15.91l5.62,11.13c4.88,2.39,10.75,3.38,11.41,11.54,3.22,1.81,4.55,4.53,6.86,6.92,1.07,1.07,0,2.14,1.16,2.97,3.06,2.39,8.68,2.97,9.43-.49,0,0,5.13,1.98,8.85,1.48,2.32-.25,2.07-2.47,4.38-2.97l16.54,14.42,2.98-2.14c11.33,2.64,22.74,1.15,34.06-.49l13.56-11.54,18.77-.66.17-9.72-9.67-3.3-6.7-14.67-9.67-8.16c1.65-2.55-2.89-5.19-5.13-7.75-3.06.82-6.37.16-9.84-1.65l2.48-3.13v-4.53l8.76-.16c1.74-1.07,3.56-1.57,4.88-4.29v-8.41h0ZM701.47,524.48l-5.04,7.42-38.03.66,6.2,12.77c-9.84,9.89-3.56,11.79-1.24,15.58-4.3,7.99-7.61,17.8-16.21,18.13-2.15.58-3.72,0-4.13,2.64-.91,6.18,1.82,19.12,4.3,26.54,2.56,5.77,7.11,9.64,9.59,14.42,2.23,3.3,2.81,6.68,3.89,9.97l5.29,5.93c2.23-.66,4.71,0,8.19,5.69l15.87,5.19c3.39,3.13,8.85,4.04,14.14,4.94l8.27,27.28,15.54.41c2.65-1.65,5.37-1.57,8.02,1.9,5.79-.91,10.91-2.39,18.52-1.48,2.4-2.55,5.37-4.45,10.34-4.2,5.95,4.7,22.99-4.86,30.26-9.64-1.82-3.21-5.04-4.94-8.1-6.92.25-3.63-1.24-7.66-2.56-11.62-1.57-2.39-2.73-4.78-1.74-6.51l-3.64-7.83,2.23-.74c-.58-6.02-.58-11.62,3.06-15.33-2.48-5.03-10.83-9.07-10.34-15.08l7.11-20.03-18.93-12.53-3.14-11.13-57.71-36.43h0ZM663.6,467.53l2.73-2.06c11,2.8,22.41,1.15,33.9-.41l6.86-5.69c3.89,2.31,6.78,6.18,7.36,14.34l6.61,5.27v15.99l-24.56,36.92-38.28.74-5.87,4.7h-2.32l-1.32-1.65.91-22.75,8.6-12.94,13.64-12.2-8.27-5.19v-15.08h0ZM663.27,894.02c0-.08,0-.16-.17-.16s-.25,0-.41.08c-.66.25-1.9.91-3.14,1.73,0,0-.08,0-.17.08-1.82,1.07-3.72,2.31-4.8,2.88-.33.16-.58.25-.66.25-.83.08-1.57.08-2.23,0-1.24-.08-2.23-.49-2.98-1.4,0,0,0-.08-.08-.16-.99-1.32-1.41-3.54-1.07-7.25,0-.49.17-1.07.25-1.57h0c.41-1.57,1.24-3.05,2.15-4.29h0c2.07-2.8,4.88-4.86,5.95-5.52,1.41-.91,2.81.99,4.22,2.06.17.16.41.25.58.41.33.16.74.33,1.07.33.25,0,.41-.08.66-.25,0,0-.17-7.01-.58-16.65h0c-.33-8.49-.74-19.12-1.16-28.84h0c-2.23-1.4-4.13-3.13-6.37-4.37h0c-2.56-1.4-5.54-2.06-10-.58-4.38-3.3-8.76-2.97-13.15-3.96h-.08l-44.57,35.36-3.47,2.72h0l-1.74,7.91c-2.73,1.48-5.54,2.06-8.27,2.39-2.4.25-4.71.33-7.11.58h0c-.33,0-.66,0-.91.08h-.08c-2.98-2.23-6.12-3.79-9.43-4.62-1.24-.33-2.56-.49-3.89-.58h0l-1.49,1.32-6.53,5.69c-.5,2.64-1.65,3.63-2.89,4.53-.58.41-1.24.82-1.82,1.32h0c-.25.16-.41.25-.66.41-2.23,1.48-3.47,3.38-3.97,5.36-.99.25-1.98.41-2.89.58h-.17c-6.45.99-11.33-.16-15.96-1.73.83-3.96,3.14-6.76,2.32-12.11v-.33c0-.33-.17-.74-.25-1.07-.17-.58-.33-1.24-.58-1.9l-11.16-12.44v.25l-1.49,53.32c-3.39,1.48-6.78,3.71-10.17,6.92-5.62-.49-10.34-1.24-18.19.16,0-.25-.08-.49-.17-.74-.58-2.14-1.57-4.53-3.06-6.35h0c-1.74-2.14-4.05-3.38-7.03-2.23h-.17c-1.41.58-2.98,1.73-4.63,3.54-.25.25-.5.58-.74.91l22.16,44.5.33,10.14c-1.16,2.47-2.98,2.55-5.04,2.14-.83,1.15-1.65,2.72.25,3.79,2.73,4.86,4.71,10.8,8.27,14.92,2.89,3.46,7.11,5.19,10.5,8.16l8.85.74c1.82-1.24.17-2.97,6.78-3.63h12.9c4.05-1.65-.5-5.69,12.82-4.7,2.15.25,3.14,2.64,6.53.82,6.2-.99,12.07,1.32,18.11,2.23,1.82-1.4,1.16-3.87,11.16-1.9l.99-3.87,11.74.16,69.54-64.45c11-4.53,13.48-17.8,16.54-30.41h0l-8.76-.58h0l-.33-.16ZM624.74,933.17c-.66,1.4-1.65,2.14-2.65,3.21-.83.82-1.74,1.57-2.65,2.23-.58.16-1.24.33-1.82.66-.99,0-2.73.41-3.97.91-.91.33-1.74.74-2.4,1.4-.58.58-.74,1.4-.91,2.06-.17.74-1.74,1.73-2.32,1.9-.83.25-1.98,0-2.89,0-1.74,0-2.65-.41-3.64-1.73-1.24-1.65-2.89-2.97-3.97-4.86-.83-1.32-1.49-2.14-1.98-3.54-.33-1.07-.25-2.23-.25-3.3s.66-2.72,1.9-3.3c.17,0,.33-.16.41-.25,1.49-.74,1.82-2.39,2.89-3.46,1.16-1.15,2.73-2.23,3.97-3.3.83-.66,1.98-1.32,2.89-1.73,1.41-.66,2.73-1.07,4.22-1.4,1.07-.25,2.4-.66,3.31-.91h1.16c1.32-.25,2.98.41,3.64,1.32.99,1.32,2.15,2.55,3.14,3.79.5.66.5,2.23.91,3.13.58,1.24,1.32,2.14,1.74,3.46s-.17,2.72-.74,3.87h0v-.16ZM660.63,632.28l-25.14,6.18c-1.65,2.97-2.81,4.7-3.47,8.08-.17.91.58,2.64.83,5.11.5,4.86,2.15,13.43.66,15.74-3.56,5.44-5.87,15.41-5.71,15.66,1.98,2.88,6.12,5.77,8.52,6.43,3.31.91,7.03.49,7.85-.74l.41,15.82c-1.32-1.07-3.14-1.81-4.05-2.97-5.29-.41-10.09,2.39-17.78-12.28-5.13-.41-10.17-1.9-14.55-7.99-2.15-.58-5.62,2.31-8.85,3.05-9.09-.91-11.74-5.19-14.06-6.51-1.57-1.48-2.56-3.13-2.89-5.11l-9.34,3.13-1.65-7.25-3.89.16-3.31,27.03,3.06,3.05-28.61-.74-1.41,50.68,15.87,14.01,21.58-3.38,3.14,4.7,1.41,3.21,16.87.16,2.32,1.98,3.14-.82c9.09-11.87,17.36-14.92,25.8-18.87l.33-7.91c6.61-4.12,13.73-6.35,21.99-4.78l-3.06-7.83,41.92-13.1-4.46-6.51,7.52-14.01,5.87-.66-3.8-5.11,3.47-18.46,3.47-2.39-6.86-13.35-3.14-6.18-16.04-5.36c-5.46-7.75-6.78-6.26-8.43-5.85l-5.54-6.02h0Z"/>

    <g id="destinations" class="destinations">
      <g id="countries">
      <path id="KE" class="country" data-name="Kenya" data-id="KE" d="M814,540.96c-1.82,2.8-3.8,5.44-7.77,5.52-1.49,3.96-3.39,7.5-8.35,8.74-5.46,9.81-9.59,21.1-16.37,29.34l-19.02-12.69-2.98-11.04-57.96-36.26,19.1-29.09.41-16.32-6.53-5.36c-.83-6.26-2.32-11.95-7.44-14.26l6.78-5.85,18.85-.82,11.74.99c4.05,2.06,6.12,2.14,16.78,10.96l21.33,3.21c3.39-1.15,6.61-2.88,8.93-7.66,5.13-.74,10.67-5.19,17.36,1.15,2.23.74,5.71.41,9.18,0-3.97,6.35-8.19,11.46-12.32,16.73l.33,52.83,7.94,9.97h0v-.08Z"/>
      <path id="BI" class="country" data-name="Burundi" data-id="BI" d="M638.8,555.22l1.98-1.9h2.4l1.24,3.46,6.78-1.32.33-4.29,8.52-.49c-2.81,4.86,1.41,7.58,3.14,10.05-5.71,13.27-10.58,17.97-14.97,18.21-5.87,0-5.13,2.14-5.71,4.04-.41-5.93,0-11.46.25-16.24.58-5.93-1.41-10.3-3.97-11.54h0Z"/>
      <path id="CD" class="country" data-name="Dem. Rep. Congo" data-id="CD" d="M493.53,468.19c-2.4,7.17-5.29,12.28-8.35,20.11-3.97,10.22-3.06,26.04-5.13,40.05-10.42,4.7-13.73,12.28-19.1,19.04l-4.13,19.86c-7.52,7.33-14.55,16.81-23.65,18.05-.58-11.13-10.17-5.77-11.24-1.4-4.63,3.05-6.12,0-8.68-1.07-3.31,2.39-5.71,5.19-5.79,9.23.5,6.43-2.48,6.1-4.55,7.33l1.24,4.86,17.2-5.85,37.7.66,3.47,2.06c8.6,31.65,15.54,28.52,21.66,30.08,9.59-3.96,12.15-1.81,17.2-1.81l3.72-14.42,10.09.58,1.32-2.64,5.62.91v5.85l12.24-.91,1.24,31.89,6.95,14.34-5.29,7.09,4.8,4.04,2.56-5.11,15.87-.25,5.79-1.9h4.96l1.82,7.01,9.26-3.05c.5,2.14,1.41,3.71,2.65,4.86,2.98,2.8,8.6,6.68,13.64,6.76,3.56,0,6.37-3.54,9.51-2.88,4.22,5.85,9.26,7.5,14.47,7.99,3.89,6.02,6.53,13.35,17.61,12.2l4.3,2.97-.33-15.41c-7.69,2.47-12.32-1.07-16.37-6.02.74-6.1,3.22-11.62,6.04-16.98.25-6.26-.58-12.03-2.15-18.3-.33-1.4,1.49-6.51,3.72-9.48l24.97-6.1c-2.56-13.93-11.66-16.73-14.3-26.62-3.22-12.03-4.71-26.54-3.06-40.63-.5-6.59-3.47-10.14-7.85-11.95l7.44-10.63,6.04-6.59.91-23.08,8.43-12.77,13.64-12.2-8.19-5.36v-14.59l-17.03-14.34c-1.49.16-2.23,1.65-3.31,2.55-3.39,1.07-6.61-.58-9.84-.99-1.74,3.96-9.01,1.9-9.84-.41-.25-.66.33-1.98-.66-2.31-2.15-2.88-4.38-4.86-6.45-6.68l-7.11.33-2.32,2.64-2.56-2.14-1.65,2.55-3.39-4.45-15.3,1.32v2.47l-6.78,1.24-1.07-2.64-17.36,6.1c-4.88-3.54-6.61-1.57-9.51-1.73l-3.06,6.59c-14.39-.58-20.42-.58-22.82-3.71-4.55,5.03-5.71-1.15-8.43-1.9-1.57-7.33-5.79-5.11-8.68-7.58-5.37,3.63-8.27,7.17-10.83,10.8.33,4.78-.5,8.9-1.9,12.44h0Z"/>
      <path id="DJ" class="country" data-name="Djibouti" data-id="DJ" d="M825.82,334.35l-8.1,6.02c-1.41,4.12-.66,7.33-1.82,9.31-4.63,7.91-4.05,8.49-2.65,10.22,1.98,2.39,7.11.66,9.76-.91l4.22,1.81,4.71-7.17c-2.89-2.47-5.87-1.15-8.76-1.32.83-3.54,4.8-4.37,7.69-6.18,2.15-6.35-2.32-10.55-5.04-11.79h0Z"/>
      <path id="ET" class="country" data-name="Ethiopia" data-id="ET" d="M900.32,400.86l-39.85,45.33-15.54-.25c-1.9.49-9.09,4.94-13.23,8.57-3.39,2.97-8.6,4.7-13.97,7.17-3.14,0-7.03,1.15-9.26-.41-5.21-5.03-11.16-2.55-17.12-.74-1.98,3.54-4.63,6.43-9.01,7.58l-21.33-3.3c-4.8-4.04-10.17-7.83-16.7-10.88l-11.82-.82v-9.56l-9.34-3.38-6.7-15.33-9.67-7.66c1.82-2.88-2.89-5.27-5.29-7.83-3.31.74-6.53.08-9.84-1.65l2.89-3.46-.17-4.45,8.52.16c1.82-1.15,3.89-1.57,5.29-4.62l-.25-24.89,4.05-6.35,4.22.16,1.9-10.63c5.13-6.26,6.95-13.93,15.38-18.79l2.23-18.38,6.78-.16.91-2.23h3.31c0,.08,2.81,4.7,2.81,4.7l4.05-10.71c2.65,1.73,6.2,1.81,7.69,5.52l6.78-1.32,1.16-2.14,1.24-.25,1.65,2.88c2.15-1.32,4.88-2.64,8.27-.41.99.41,2.15.66,4.8-.82,2.73,1.48,4.38,4.45,8.27,4.29,8.76,7.58,17.2,15.49,24.64,24.48-.66.66-.99,3.05-1.49,8.49l-3.22,5.77c-2.56,4.29.58,7.99,5.54,6.26l4.38-1.65,4.38,1.81c-5.29,6.1,7.28,16.65,18.6,27.11l40.84,13.02,13.23-.25h0Z"/>
      <path id="ER" class="country" data-name="Eritrea" data-id="ER" d="M753.56,308.06c2.56,1.73,5.04,1.48,7.61,5.44l6.78-1.32,1.32-2.14,1.07-.33,1.49,2.8c3.39-1.81,6.45-1.9,8.68-.16,1.32,1.07,3.22-.41,4.71-.91,2.65,2.14,5.21,4.45,8.1,4.37,9.26,7.66,17.28,15.91,24.72,24.39l8.02-5.6c-1.16-3.05-2.65-5.85-8.1-6.02-.25-2.47-1.32-4.62-4.8-5.93-.74-2.97-3.31-2.88-5.29-3.71-1.65-4.7-5.79-7.25-9.18-10.47-3.8.91-5.54-1.65-7.36-4.04l-2.89-.58-2.23,1.4c-2.15-1.81-2.73-4.2-3.39-6.68l-3.14-.82.83,4.29c-1.9,1.15-2.89-1.98-3.89-5.27l-6.28-9.15c-4.13-19.12-7.69-21.51-11.41-26.7-.99,2.39-1.16,5.27-2.89,6.59l-9.34,4.86c-1.49,2.64-3.8,3.38-6.28,3.38-3.47,16.57-5.29,27.28-5.13,40.71h7.19l.66-2.31,3.31.16,2.73,4.29,4.38-10.55h0Z"/>
      <path id="MW" class="country" data-name="Malawi" data-id="MW" d="M704.2,654.36l8.27,27.03-2.4,23.98c4.88,4.37,9.76,7.91,16.62,19.37.83,1.4,1.74,5.03,1.49,7.91l-3.14,12.69-7.44,3.21.58,11.13h-3.97c2.07-5.11,0-4.12-.83-4.45-5.37-3.38-7.44-8.41-8.43-12.94,4.38-6.76,4.13-12.2,3.64-17.47l-7.28-1.32c-5.62,1.4-6.78-.66-7.28-2.55-3.06-7.17-4.46-4.37-5.62-4.86l-4.38-6.02,7.69-14.18,5.95-.66-4.05-5.27,3.56-18.38,3.39-2.47-9.76-19.28c2.89,2.47,6.04,3.38,13.39,4.53h0Z"/>
      <path id="RW" class="country" data-name="Rwanda" data-id="RW" d="M658.23,532.47l-6.12,4.86h-2.07l-1.24-1.73c-5.37,5.36-9.43,11.46-13.56,17.39,1.49.33,2.73,1.07,3.56,2.23l1.98-1.9,2.32.16,1.16,3.13,7.03-1.4.33-4.2,8.68-.49c1.24-1.73,2.4-3.46,4.3-5.19l-6.37-12.86h0Z"/>
      <path id="SD" class="country" data-name="Sudan" data-id="SD" d="M713.38,191.78l-4.46,4.53-3.72-.82-1.74,7.42-8.02,2.06-.74,6.02-7.03.82-3.39-3.46-109.22,3.3,1.32,27.28c-4.63.33-9.43.33-13.23-.16l.17,8.65,1.24,51.59-14.8.82.17,5.52-8.43,10.71.58,7.58-2.81,1.32c-.25,4.78-.83,8.9-2.81,10.22v6.18l6.28-1.32c1.24,6.92,1.57,14.18,7.36,19.45l.74,4.62-2.73.41c4.63,5.77,10,11.21,13.06,17.8-5.21,15.99,2.15,13.76,6.7,15.74v-.25l11.99-23.41h11.16l3.72,7.09,5.37-.49h16.21v-6.1l16.87.58.17,4.78,7.69-2.47v-4.7l8.85-3.21,13.39,8.74,14.22-18.13-.83-11.46-4.88-3.63h9.43v-4.7l5.37,2.14,4.96,27.61,6.2,2.31,3.72,7.01v9.72l6.37-2.31h0l-.17-16.81,4.13-6.18h4.22c0,.08,2.07-10.55,2.07-10.55,4.96-6.1,6.95-13.93,14.97-18.38l2.56-20.11c-1.49-14.18,2.89-26.45,4.96-39.48,2.07-.82,4.38.74,6.12-3.21l9.26-4.7c1.82-1.24,2.4-4.04,2.98-6.92-1.24-2.8-3.06-2.31-4.71-2.64-2.73-5.19-7.28-5.69-11.16-7.66l-5.46-33.05-4.3-4.62c.91-11.87-13.06-14.01-19.93-21.1h0Z"/>
      <path id="SO" class="country" data-name="Somalia" data-id="SO" d="M832.11,353.47l-4.88,7.58c-4.71,6.76,8.19,17.14,18.85,27.03l41.18,13.19,13.23-.58-39.94,45.57-16.12-.33c-5.13,2.88-10.17,5.85-13.81,9.56-4.22,2.64-8.93,4.2-13.39,6.26-2.73,6.02-7.36,10.96-11.58,16.15l.17,52.91,8.1,10.14,18.6-20.77,31.17-29.34,3.56-.41,13.06-12.36.5-2.47c7.19-5.44,16.12-14.59,18.36-19.04,3.97-7.99,9.01-14.67,14.72-21.18l12.32-35.36c2.4-2.31,4.22-5.36,5.71-8.9.66-3.71,2.81-5.03,4.55-7.09l1.41-17.72c3.97.58,2.07-7.25,2.32-12.11-1.57-1.4-3.22-3.63,0-5.44v-4.45c-2.89.25-5.79-3.05-8.6-.82-3.56,3.3-8.27,5.69-13.73,6.18-6.04.49-10.91,3.96-13.48,3.13-4.05,3.38-9.26,4.53-16.04,2.55-4.46,3.96-7.44,9.15-21.91,5.52l-9.18,6.59c-14.3,3.87-18.02-7.58-25.14-14.01h0Z"/>
      <path id="SS" class="country" data-name="S. Sudan" data-id="SS" d="M707.84,387.1h0l-6.45,2.31v-9.72l-3.72-7.01-6.2-2.31-4.96-27.61-5.37-2.14v4.7h-9.43l4.88,3.63.83,11.46-14.22,18.13-13.39-8.74-8.85,3.21v4.7l-7.69,2.47-.17-4.78-16.87-.58v6.1h-16.04l-5.37.49-3.72-7.09h-11.16l-11.99,23.41v.25c.17.08.33.08.41.16,1.74,2.39,2.48,5.36,10.5,4.45l4.63,4.2c-.99,7.01,9.43,10.88,15.46,15.91l5.62,11.13c4.88,2.39,10.75,3.38,11.41,11.54,3.22,1.81,4.55,4.53,6.86,6.92,1.07,1.07,0,2.14,1.16,2.97,3.06,2.39,8.68,2.97,9.43-.49,0,0,5.13,1.98,8.85,1.48,2.32-.25,2.07-2.47,4.38-2.97l16.54,14.42,2.98-2.14c11.33,2.64,22.74,1.15,34.06-.49l13.56-11.54,18.77-.66.17-9.72-9.67-3.3-6.7-14.67-9.67-8.16c1.65-2.55-2.89-5.19-5.13-7.75-3.06.82-6.37.16-9.84-1.65l2.48-3.13v-4.53l8.76-.16c1.74-1.07,3.56-1.57,4.88-4.29v-8.41h0Z"/>
      <path id="TZ" class="country" data-name="Tanzania" data-id="TZ" d="M701.47,524.48l-5.04,7.42-38.03.66,6.2,12.77c-9.84,9.89-3.56,11.79-1.24,15.58-4.3,7.99-7.61,17.8-16.21,18.13-2.15.58-3.72,0-4.13,2.64-.91,6.18,1.82,19.12,4.3,26.54,2.56,5.77,7.11,9.64,9.59,14.42,2.23,3.3,2.81,6.68,3.89,9.97l5.29,5.93c2.23-.66,4.71,0,8.19,5.69l15.87,5.19c3.39,3.13,8.85,4.04,14.14,4.94l8.27,27.28,15.54.41c2.65-1.65,5.37-1.57,8.02,1.9,5.79-.91,10.91-2.39,18.52-1.48,2.4-2.55,5.37-4.45,10.34-4.2,5.95,4.7,22.99-4.86,30.26-9.64-1.82-3.21-5.04-4.94-8.1-6.92.25-3.63-1.24-7.66-2.56-11.62-1.57-2.39-2.73-4.78-1.74-6.51l-3.64-7.83,2.23-.74c-.58-6.02-.58-11.62,3.06-15.33-2.48-5.03-10.83-9.07-10.34-15.08l7.11-20.03-18.93-12.53-3.14-11.13-57.71-36.43h0Z"/>
      <path id="UG" class="country" data-name="Uganda" data-id="UG" d="M663.6,467.53l2.73-2.06c11,2.8,22.41,1.15,33.9-.41l6.86-5.69c3.89,2.31,6.78,6.18,7.36,14.34l6.61,5.27v15.99l-24.56,36.92-38.28.74-5.87,4.7h-2.32l-1.32-1.65.91-22.75,8.6-12.94,13.64-12.2-8.27-5.19v-15.08h0Z"/>
      <path id="ZA" class="country" data-name="South Africa" data-id="ZA" d="M663.27,894.02c0-.08,0-.16-.17-.16s-.25,0-.41.08c-.66.25-1.9.91-3.14,1.73,0,0-.08,0-.17.08-1.82,1.07-3.72,2.31-4.8,2.88-.33.16-.58.25-.66.25-.83.08-1.57.08-2.23,0-1.24-.08-2.23-.49-2.98-1.4,0,0,0-.08-.08-.16-.99-1.32-1.41-3.54-1.07-7.25,0-.49.17-1.07.25-1.57h0c.41-1.57,1.24-3.05,2.15-4.29h0c2.07-2.8,4.88-4.86,5.95-5.52,1.41-.91,2.81.99,4.22,2.06.17.16.41.25.58.41.33.16.74.33,1.07.33.25,0,.41-.08.66-.25,0,0-.17-7.01-.58-16.65h0c-.33-8.49-.74-19.12-1.16-28.84h0c-2.23-1.4-4.13-3.13-6.37-4.37h0c-2.56-1.4-5.54-2.06-10-.58-4.38-3.3-8.76-2.97-13.15-3.96h-.08l-44.57,35.36-3.47,2.72h0l-1.74,7.91c-2.73,1.48-5.54,2.06-8.27,2.39-2.4.25-4.71.33-7.11.58h0c-.33,0-.66,0-.91.08h-.08c-2.98-2.23-6.12-3.79-9.43-4.62-1.24-.33-2.56-.49-3.89-.58h0l-1.49,1.32-6.53,5.69c-.5,2.64-1.65,3.63-2.89,4.53-.58.41-1.24.82-1.82,1.32h0c-.25.16-.41.25-.66.41-2.23,1.48-3.47,3.38-3.97,5.36-.99.25-1.98.41-2.89.58h-.17c-6.45.99-11.33-.16-15.96-1.73.83-3.96,3.14-6.76,2.32-12.11v-.33c0-.33-.17-.74-.25-1.07-.17-.58-.33-1.24-.58-1.9l-11.16-12.44v.25l-1.49,53.32c-3.39,1.48-6.78,3.71-10.17,6.92-5.62-.49-10.34-1.24-18.19.16,0-.25-.08-.49-.17-.74-.58-2.14-1.57-4.53-3.06-6.35h0c-1.74-2.14-4.05-3.38-7.03-2.23h-.17c-1.41.58-2.98,1.73-4.63,3.54-.25.25-.5.58-.74.91l22.16,44.5.33,10.14c-1.16,2.47-2.98,2.55-5.04,2.14-.83,1.15-1.65,2.72.25,3.79,2.73,4.86,4.71,10.8,8.27,14.92,2.89,3.46,7.11,5.19,10.5,8.16l8.85.74c1.82-1.24.17-2.97,6.78-3.63h12.9c4.05-1.65-.5-5.69,12.82-4.7,2.15.25,3.14,2.64,6.53.82,6.2-.99,12.07,1.32,18.11,2.23,1.82-1.4,1.16-3.87,11.16-1.9l.99-3.87,11.74.16,69.54-64.45c11-4.53,13.48-17.8,16.54-30.41h0l-8.76-.58h0l-.33-.16ZM624.74,933.17c-.66,1.4-1.65,2.14-2.65,3.21-.83.82-1.74,1.57-2.65,2.23-.58.16-1.24.33-1.82.66-.99,0-2.73.41-3.97.91-.91.33-1.74.74-2.4,1.4-.58.58-.74,1.4-.91,2.06-.17.74-1.74,1.73-2.32,1.9-.83.25-1.98,0-2.89,0-1.74,0-2.65-.41-3.64-1.73-1.24-1.65-2.89-2.97-3.97-4.86-.83-1.32-1.49-2.14-1.98-3.54-.33-1.07-.25-2.23-.25-3.3s.66-2.72,1.9-3.3c.17,0,.33-.16.41-.25,1.49-.74,1.82-2.39,2.89-3.46,1.16-1.15,2.73-2.23,3.97-3.3.83-.66,1.98-1.32,2.89-1.73,1.41-.66,2.73-1.07,4.22-1.4,1.07-.25,2.4-.66,3.31-.91h1.16c1.32-.25,2.98.41,3.64,1.32.99,1.32,2.15,2.55,3.14,3.79.5.66.5,2.23.91,3.13.58,1.24,1.32,2.14,1.74,3.46s-.17,2.72-.74,3.87h0v-.16Z"/>
      <path id="ZM" class="country" data-name="Zambia" data-id="ZM" d="M660.63,632.28l-25.14,6.18c-1.65,2.97-2.81,4.7-3.47,8.08-.17.91.58,2.64.83,5.11.5,4.86,2.15,13.43.66,15.74-3.56,5.44-5.87,15.41-5.71,15.66,1.98,2.88,6.12,5.77,8.52,6.43,3.31.91,7.03.49,7.85-.74l.41,15.82c-1.32-1.07-3.14-1.81-4.05-2.97-5.29-.41-10.09,2.39-17.78-12.28-5.13-.41-10.17-1.9-14.55-7.99-2.15-.58-5.62,2.31-8.85,3.05-9.09-.91-11.74-5.19-14.06-6.51-1.57-1.48-2.56-3.13-2.89-5.11l-9.34,3.13-1.65-7.25-3.89.16-3.31,27.03,3.06,3.05-28.61-.74-1.41,50.68,15.87,14.01,21.58-3.38,3.14,4.7,1.41,3.21,16.87.16,2.32,1.98,3.14-.82c9.09-11.87,17.36-14.92,25.8-18.87l.33-7.91c6.61-4.12,13.73-6.35,21.99-4.78l-3.06-7.83,41.92-13.1-4.46-6.51,7.52-14.01,5.87-.66-3.8-5.11,3.47-18.46,3.47-2.39-6.86-13.35-3.14-6.18-16.04-5.36c-5.46-7.75-6.78-6.26-8.43-5.85l-5.54-6.02h0Z"/>
    </g>
      <g id="lakes">
    <path id="lakeVictoria" class="lakes" d="M718.92,520.56c.25-.16,0-.58-.17-.74h-.74c-.5,0-.99,0-1.4-.16h-.83l-.25-.25s-.33-.25-.41-.25c-.25,0-.99-.16-1.16,0-.17,0-.17.49-.25.66-.17.25-.25.41-.5.58s-.66.25-.66.58.41.41.5.74c0,.25,0,.66-.25.74-.17,0-.5.16-.74,0-.25,0-.74-.16-.99-.25-.5-.33-.33-.82,0-1.07.17-.16.33-.25.25-.58-.17-.41-.91-.25-1.16-.49,0-.33,1.24-.58.5-.99-.33-.16-.83,0-1.16,0h-.58c-.25,0-.33,0-.33-.16v-1.56c0-.41-.25-.49-.5-.66-.33-.25-.41-.49-.33-.91,0-.25-.08-.41-.33-.49-.25,0-.58-.25-.91-.25-.41,0-.17,0-.25.33,0,.16-.5,0-.66,0h-.74c-.17-.16,0-.66,0-.82s0-.49-.17-.58h-.91c-.17,0,0,.66,0,.82v.49c0,.25,0,.16-.25.25-.33,0-.74.33-1.07.25-.25,0-.5-.58-.58-.82v-1.56c0-.25-.33-.33-.58-.33-.5-.16-1.07,0-1.57,0h-1.82v.91c.17.49.74.41,1.16.41s1.57-.33,2.07,0c0,0,.58.41.58.49,0,.25-.83.74-1.07.91-.5.25-1.07.25-1.57.41-.33.16-.74,0-1.07,0s-.41,0-.5-.16c0,0-.17-.25-.25-.25s0,0,0,0c0,.16,0,.33-.17.49-.33.33-.74.25-1.07.16h-1.07c-.25-.16-.17-.41-.33-.66,0-.16-.17-.25-.41-.33h-.5c0,.25.17.66-.17.82-.33.25-.99,0-1.4,0s-.58,0-.58-.49,0-.33.17-.41v-.33c-.58-.25-1.24.41-1.57.82-.25.33-.17.49,0,.82s.5.41.83.49c.17,0,.5,0,.41.33,0,.25-1.07,0-1.24,0h-.99c-.41,0-.33-.66,0-.58-.74,0-1.57-.16-2.07.58-.25.33-.17.58-.17.91v.49s-.5.16-.66.25c-.25.16-.33.33-.66.33-.25,0-.41-.25-.66-.33-.17,0-.33,0-.5-.16-.74-.25-1.57-.66-2.31-.41v.58c0,.16.41.49.58.58h.58c.17,0,.33,0,.58.16.25,0,.74.16.91.41.17.25,0,.49,0,.74v1.73c-.17.33-.91.49-1.24.66-.83.41-1.65.82-1.65,1.81s0,.74-.25,1.07-.33.25-.41.41c-.17.16,0,.41,0,.66,0,.58.17.66.66.99.41.33.74.49.74,1.15v1.32c0,.49-.17.82-.5,1.23-.25.33-.5.58-.74.91-.25.33-.41.41-.66.66s.17,1.07.33,1.4c.25.49.66.82.74,1.4v.91c-.17.41-.25.91-.5,1.32,0,.16-.33.49-.41.74v.49c0,.33-.17.58-.33.82-.41.49-.83.91-.83,1.56s0,.33.17.49h.17c.17,0,0,.49,0,.66,0,.25,0,.58-.17.91,0,.16-.41.41-.25.58.33,0,.83-.82,1.16-.58.25.25,0,.74,0,.99-.33.91,1.32.33,1.32,1.07s-.83.41-1.07.49-.33,0-.25.41c0,.25.17.58.33.74.25.41.58.74.25,1.23,0,.16-.25.16-.41.33s-.17.33-.17.49c0,.58,0,.74.5,1.15s.41.25.74.33c.33.16.66.49.91,0,.25-.33.33-.82.17-1.15,0-.33-.25-.82,0-.91h.66c.25,0,.33.33.58.41.41.16.33-.82.25-1.07,0-.25-.41-.41-.58-.58s-.25-.33-.33-.49c-.25-.49-.33-1.07.33-1.07h.91c.17,0,.33.25.5.33,0,0,.41.33.5.33.25,0,.17-.49.17-.66,0-.33,0-.49-.33-.74-.25-.16-.33-.33,0-.58.41-.25.91-.41,1.32-.58.33-.16.5-.16.83,0,0-.33-.17-.74.25-.74.33,0,.66.74.83.99.33.41.66.91.91,1.32,0,.16,0,.25.17.41v.41c.17.33.83.41,1.16.33.17-.33,0-.66.25-.99l.25-.25s0-.33.17-.41c.33-.41,1.16-.25,1.57,0,.58.25.74.82,1.07,1.32.33.58.17,1.15,0,1.81s0,1.32-.41,1.89c0,0-.33.25-.41.33v.74c.17.16.5.25.66.25h.41c.41,0,.33-.25.41-.49.17-.33.33-.66.66-.82.25-.16.33-.33.25-.58,0-.25-.41-.41-.5-.66s0-.58,0-.82v-2.06c.17-.58.25-.74.91-.82s.99,0,1.24.58c.17.25.25.58.25.91s0,.74.41.91c.25.16.83,0,1.07,0,.66-.16,1.24-.58,1.9-.66.58,0,.33-.33.41-.74.17-.74.83-.25,1.32-.16h.5c.17-.16,0-.82,0-1.07,0-.16-.25-.33-.17-.58s0-.16.33-.25c.17,0,.41-.16.66-.25s.5,0,.74,0,.74-.16.74-.58,0-.82-.17-1.15c-.41-.58-1.49-.41-2.07-.16-.5.16-1.07.16-1.57.16h-1.98c-.66,0-.74.16-.83-.16,0-.25,0-.49.17-.74,0,0,.25-.16.25-.33h3.47c.25-.16,0-.66,0-.82-.17-.58-.74-.74-1.24-.82-.41,0-1.07,0-1.16-.58,0-.33,0-.74.33-.82h.5c.17,0,.33-.16.5-.16s.25,0,.41.16c.33.16.58.33.91.49.25.16.41.25.66.25.5,0,.58,0,.58-.49s-.5-.66-1.07-.91c-.17,0-.83-.41-.5-.74s.74-.16,1.07-.16h.74c.17,0,.25,0,.33-.16.17-.33-.17-.58-.41-.74s-.58-.41-.5-.82c0-.33.58-.49.83-.58.74,0,1.32.33,2.07.41,0-.66-.83-.99-1.24-1.23-.17,0-.25-.16-.25-.41s0-.33.25-.49c.58-.33.99-.16,1.4.25s.33.41.66.41c.17,0,.25-.16.25-.41,0-.66-.25-.99-.74-1.4,0,0-.33-.16-.33-.33.5-.25.99-.41,1.49-.74s.41-.33.5-.58c0-.33,0-.58.33-.91.33-.41.91-.33.91-.91s-.25-.91-.83-1.23-.41-.99-.5-1.65c0-.33-.41-1.07,0-1.4s.33-.16.58-.16.41-.25.66-.33h.91c.33,0,.17-.16.33-.25h.33c.41,0,.91,0,1.32.25.25,0,.33.33.58.41.25.16,1.16,0,1.32-.16.25-.49-.74-.91-.66-1.4,0-.41.91-.58,1.16-.49.66.16,1.24.16,1.9.16h.91c.25,0,.66-.25.74-.49v-.74c-.5-.49-.25-.41-.5-.66h0l.17.25Z"/></g>
      <g id="routes" >
        <path id="ADDroute" class="route" data-name="Addis Ababa" data-id="ET" d="M758.98,393.06c-10.99,64.86-12.72,141.9-12.72,141.9"/>
        <path id="ASMroute" class="route" data-name="Asmara" data-id="ER" d="M770.05,300.55c-29.49,128.32-23.79,234.42-23.79,234.42"/>
        <path id="BJMroute" class="route" data-name="Bujumbura" data-id="BI" d="M646.56,562.45c24.04-13.99,99.71-27.49,99.71-27.49"/>
        <path id="DODroute" class="route" data-name="Dodoma" data-id="TZ" d="M727.35,621.55c19-41.73,19-86.67,19-86.67"/>
        <path id="EBBroute" class="route" data-name="Kampala" data-id="UG" d="M693.81,511.26c36.02,6.5,52.45,23.7,52.45,23.7"/>
        <path id="FIHroute" class="route" data-name="Kinshasa" data-id="CD" d="M453.92,583.52c132.17-112.02,292.34-48.56,292.34-48.56"/>
        <path id="JIBroute" class="route" data-name="Djibouti" data-id="DJ" d="M822.59,353.06c-41.88,58.93-76.33,181.9-76.33,181.9"/>
        <path id="JUBroute" class="route" data-name="Juba" data-id="SS" d="M663.66,442.53c50.22,34.82,82.61,92.43,82.61,92.43"/>
        <path id="KGLroute" class="route" data-name="Kigali" data-id="RW" d="M651.68,542.78c44.94-13.75,94.58-7.82,94.58-7.82"/>
        <path id="KRTroute" class="route" data-name="Khartoum" data-id="SD" d="M663.66,267.54c69.64,137.54,82.61,267.42,82.61,267.42"/>
        <path id="LLWroute" class="route" data-name="Lilongwe" data-id="MW" d="M698.1,708.3c22.55-119.51,48.16-173.34,48.16-173.34"/>
        <path id="LUNroute" class="route" data-name="Lusaka" data-id="ZM" d="M615.41,731.84c41.47-122.97,130.85-196.88,130.85-196.88"/>
        <path id="MGQroute" class="route" data-name="Mogadishu" data-id="SO" d="M888.59,462.61c-79.38,17.37-142.33,72.35-142.33,72.35"/>
        <path id="PRYroute" class="route" data-name="Pretoria" data-id="ZA" d="M608.15,894.4c46.01-217.21,138.12-359.44,138.12-359.44"/>
      </g>
      <g id="cities" >
        <g id="NBO" class="city" data-name="Nairobi" data-id="KE">
          <ellipse class="cityCircle" cx="746.26" cy="534.96" rx="5.12" ry="5.1"/>
          <ellipse class="countryCircle" cx="746.26" cy="534.96" rx="3.63" ry="3.62"/>
          <ellipse class="cityCircle" cx="746.26" cy="534.96" rx="2.64" ry="2.63"/>
        </g>
        <g id="ADD" class="city" data-name="Addis Ababa" data-id="ET">
          <ellipse class="cityCircle" cx="759.07" cy="392.98" rx="5.12" ry="5.1"/>
          <ellipse class="countryCircle" cx="759.07" cy="392.98" rx="3.63" ry="3.62"/>
          <ellipse class="cityCircle" cx="759.07" cy="392.98" rx="2.64" ry="2.63"/>
        </g>
        <g id="ASM" class="city" data-name="Asmara" data-id="ER">
          <ellipse class="cityCircle" cx="770.05" cy="300.55" rx="5.12" ry="5.1"/>
          <ellipse class="countryCircle" cx="770.05" cy="300.55" rx="3.63" ry="3.62"/>
          <ellipse class="cityCircle" cx="770.05" cy="300.55" rx="2.64" ry="2.63"/>
        </g>
        <g id="BJM" class="city" data-name="Bujumbura" data-id="BI">
          <ellipse class="cityCircle" cx="646.56" cy="562.45" rx="5.12" ry="5.1"/>
          <ellipse class="countryCircle" cx="646.56" cy="562.45" rx="3.63" ry="3.62"/>
          <ellipse class="cityCircle" cx="646.56" cy="562.45" rx="2.64" ry="2.63"/>
        </g>
        <g id="DOD" class="city" data-name="Dodoma" data-id="TZ">
          <ellipse class="cityCircle" cx="727.35" cy="621.55" rx="5.12" ry="5.1"/>
          <ellipse class="countryCircle" cx="727.35" cy="621.55" rx="3.63" ry="3.62"/>
          <ellipse class="cityCircle" cx="727.35" cy="621.55" rx="2.64" ry="2.63"/>
        </g>
        <g id="EBB" class="city" data-name="Kampala" data-id="UG">
          <ellipse class="cityCircle" cx="693.81" cy="511.26" rx="5.12" ry="5.1"/>
          <ellipse class="countryCircle" cx="693.81" cy="511.26" rx="3.63" ry="3.62"/>
          <ellipse class="cityCircle" cx="693.81" cy="511.26" rx="2.64" ry="2.63"/>
        </g>
        <g id="FIH" class="city" data-name="Kinshasa" data-id="CD">
          <ellipse class="cityCircle" cx="453.92" cy="583.52" rx="5.12" ry="5.1"/>
          <ellipse class="countryCircle" cx="453.92" cy="583.52" rx="3.63" ry="3.62"/>
          <ellipse class="cityCircle" cx="453.92" cy="583.52" rx="2.64" ry="2.63"/>
        </g>
        <g id="JIB" class="city" data-name="Djibouti" data-id="DJ">
          <ellipse class="cityCircle" cx="822.59" cy="353.06" rx="5.12" ry="5.1"/>
          <ellipse class="countryCircle" cx="822.59" cy="353.06" rx="3.63" ry="3.62"/>
          <ellipse class="cityCircle" cx="822.59" cy="353.06" rx="2.64" ry="2.63"/>
        </g>
        <g id="JUB" class="city" data-name="Juba" data-id="SS">
          <ellipse class="cityCircle" cx="663.66" cy="442.53" rx="5.12" ry="5.1"/>
          <ellipse class="countryCircle" cx="663.66" cy="442.53" rx="3.63" ry="3.62"/>
          <ellipse class="cityCircle" cx="663.66" cy="442.53" rx="2.64" ry="2.63"/>
        </g>
        <g id="KGL" class="city" data-name="Kigali" data-id="RW">
          <ellipse class="cityCircle" cx="651.68" cy="542.78" rx="5.12" ry="5.1"/>
          <ellipse class="countryCircle" cx="651.68" cy="542.78" rx="3.63" ry="3.62"/>
          <ellipse class="cityCircle" cx="651.68" cy="542.78" rx="2.64" ry="2.63"/>
        </g>
        <g id="KRT" class="city" data-name="Khartoum" data-id="SD">
          <ellipse class="cityCircle" cx="663.99" cy="267.54" rx="5.12" ry="5.1"/>
          <ellipse class="countryCircle" cx="663.99" cy="267.54" rx="3.63" ry="3.62"/>
          <ellipse class="cityCircle" cx="663.99" cy="267.54" rx="2.64" ry="2.63"/>
        </g>
        <g id="LLW" class="city" data-name="Lilongwe" data-id="MW">
          <ellipse class="cityCircle" cx="698.1" cy="708.3" rx="5.12" ry="5.1"/>
          <ellipse class="countryCircle" cx="698.1" cy="708.3" rx="3.63" ry="3.62"/>
          <ellipse class="cityCircle" cx="698.1" cy="708.3" rx="2.64" ry="2.63"/>
        </g>
        <g id="LUN" class="city" data-name="Lusaka" data-id="ZM">
          <ellipse class="cityCircle" cx="615.41" cy="731.84" rx="5.12" ry="5.1"/>
          <ellipse class="countryCircle" cx="615.41" cy="731.84" rx="3.63" ry="3.62"/>
          <ellipse class="cityCircle" cx="615.41" cy="731.84" rx="2.64" ry="2.63"/>
        </g>
        <g id="MGQ" class="city" data-name="Mogadishu" data-id="SO">
          <ellipse class="cityCircle" cx="888.59" cy="462.61" rx="5.12" ry="5.1"/>
          <ellipse class="countryCircle" cx="888.59" cy="462.61" rx="3.63" ry="3.62"/>
          <ellipse class="cityCircle" cx="888.59" cy="462.61" rx="2.64" ry="2.63"/>
        </g>
        <g id="PRY" class="city" data-name="Pretoria" data-id="ZA">
          <ellipse class="cityCircle" cx="608.15" cy="894.4" rx="5.12" ry="5.1"/>
          <ellipse class="countryCircle" cx="608.15" cy="894.4" rx="3.63" ry="3.62"/>
          <ellipse class="cityCircle" cx="608.15" cy="894.4" rx="2.64" ry="2.63"/>
        </g>
      </g>
      <g id="countryNames">
        <text class="countryName" data-id="KE"><tspan x="757.95" y="537.68">KENYA</tspan></text>
        <text class="countryName" data-id="BI"><tspan x="612.72" y="566.40">BURUNDI</tspan></text>
        <text class="countryName" data-id="CD" transform="translate(512.41 561.41)"><tspan x="0" y="0">DEMOCRATIC REPUBLIC</tspan><tspan x="16.69" y="9">OF CONGO</tspan></text>
        <text class="countryName" data-id="DJ"><tspan x="834.44" y="351.59">DJIBOUTI</tspan></text>
        <text class="countryName" data-id="ET"><tspan x="762.88" y="384.92">ETHIOPIA</tspan></text>
        <text class="countryName" data-id="ER"><tspan x="744.91" y="292.11">ERITREA</tspan></text>
        <text class="countryName" data-id="MW"><tspan x="695.47" y="719.15">MALAWI</tspan></text>
        <text class="countryName" data-id="RW"><tspan x="616.53" y="542.78">RWANDA</tspan></text>
        <text class="countryName" data-id="SD"><tspan x="642.56" y="286.53">SUDAN</tspan></text>
        <text class="countryName" data-id="SO"><tspan x="868.31" y="452.63">SOMALIA</tspan></text>
        <text class="countryName" data-id="SS" transform="translate(646.06 421.46)"><tspan x="0" y="0">SOUTH</tspan><tspan x="0" y="9">SUDAN</tspan></text>
        <text class="countryName" data-id="TZ"><tspan x="736.38" y="624.18">TANZANIA</tspan></text>
        <text class="countryName" data-id="UG"><tspan x="678.37" y="501.21">UGANDA</tspan></text>
        <text class="countryName" data-id="ZA"><tspan x="537.20" y="920.74">SOUTH AFRICA</tspan></text>
        <text class="countryName" data-id="ZM"><tspan x="586.29" y="724.51">ZAMBIA</tspan></text>
      </g>
    </g>
</svg>
